<svg viewBox="0 0 64 64" xmlns="http://www.w3.org/2000/svg" xmlns:xlink="http://www.w3.org/1999/xlink">
    <g fill="none" fill-rule="evenodd">
        <path fill-rule="nonzero" d="M0 0h24v24H0z"></path>
        <path class="fill" stroke="currentColor" stroke-width="3"
            d="M32.081 61.72l.004.006a.538.538 0 0 0 .843-.005L48.033 42.72l.1-.114c8.52-8.732 8.485-22.879-.08-31.576a21.777 21.777 0 0 0-31.097 0C12.789 15.261 10.5 20.87 10.5 26.852c0 5.945 2.264 11.532 6.377 15.755l.1.113 15.104 19zm.419-20.963c-7.317 0-13.25-6.103-13.25-13.586 0-7.483 5.933-13.585 13.25-13.585s13.25 6.102 13.25 13.585c0 7.483-5.933 13.586-13.25 13.586z">
        </path>
    </g>
</svg>