<svg width="193" height="152" viewBox="0 0 193 152" fill="none" xmlns="http://www.w3.org/2000/svg">
<rect x="58" y="71" width="75" height="68" rx="22" fill="#9D6D25"/>
<path d="M58 126.24C58 117.271 65.2709 110 74.24 110H116.76C125.729 110 133 117.271 133 126.24V126.24C133 133.287 127.287 139 120.24 139H70.76C63.7128 139 58 133.287 58 126.24V126.24Z" fill="#B67F2C" fill-opacity="0.36"/>
<rect x="75.4035" y="42.9873" width="41.6466" height="55.4414" rx="20.8233" fill="#656565"/>
<ellipse cx="107.134" cy="71.9567" rx="5.45372" ry="5.49419" fill="#D3D3D3"/>
<ellipse cx="107.134" cy="70.9578" rx="5.45372" ry="5.49419" fill="white"/>
<ellipse cx="107.134" cy="72.4562" rx="1.48738" ry="1.49842" fill="#090909"/>
<ellipse cx="85.8151" cy="71.9567" rx="5.45372" ry="5.49419" fill="#D3D3D3"/>
<ellipse cx="85.8151" cy="70.9578" rx="5.45372" ry="5.49419" fill="white"/>
<ellipse cx="85.8151" cy="72.4562" rx="1.48738" ry="1.49842" fill="#090909"/>
<path d="M117.417 59.2603C116.236 59.7762 115.002 60.1787 113.729 60.4716L107.761 52.1582C111.655 52.3333 115.491 51.7249 118.954 50.2119C122.657 48.5946 125.499 46.1324 127.395 43.1366C127.798 50.0686 124.304 56.2519 117.417 59.2603Z" fill="white" stroke="#DFDFDF" stroke-width="2"/>
<path d="M77.3207 53.0695C78.0855 54.1067 78.953 55.0723 79.9091 55.9625L89.2342 51.7468C85.7743 49.9515 82.7565 47.5066 80.5135 44.4646C78.116 41.213 76.8857 37.6595 76.7414 34.1169C72.926 39.9185 72.8607 47.0207 77.3207 53.0695Z" fill="white" stroke="#DFDFDF" stroke-width="2"/>
<path d="M75.4035 63.8106C75.4035 52.3103 84.7264 42.9873 96.2268 42.9873V42.9873C107.727 42.9873 117.05 52.3102 117.05 63.8106V70.4583H75.4035V63.8106Z" fill="#D3922F"/>
<path d="M96.2267 42.9873V42.9873C107.727 42.9873 117.05 52.3102 117.05 63.8106V70.4583H96.2267V42.9873Z" fill="#C08429"/>
<path d="M74.4119 63.4657H118.042V70.4583H74.4119V63.4657Z" fill="#D9D9D9"/>
<path d="M75.4035 78.9493H117.05V90.0923C117.05 101.593 107.727 110.916 96.2268 110.916V110.916C84.7264 110.916 75.4035 101.593 75.4035 90.0923V78.9493Z" fill="#FFB443"/>
<rect x="90.2772" y="72.9557" width="11.899" height="18.9799" rx="5.94951" fill="#585858"/>
<path d="M96.2267 72.9557V72.9557C99.5126 72.9557 102.176 75.6193 102.176 78.9052V85.9861C102.176 89.2719 99.5126 91.9356 96.2267 91.9356V91.9356V72.9557Z" fill="#585858"/>
<rect x="18" y="92" width="156" height="49" rx="24.5" fill="#FF8A8A" stroke="#AF3838" stroke-width="4"/>
<mask id="mask0_29_275" style="mask-type:alpha" maskUnits="userSpaceOnUse" x="20" y="94" width="152" height="45">
<rect x="20" y="94" width="152" height="45" rx="22.5" fill="#FF8A8A"/>
</mask>
<g mask="url(#mask0_29_275)">
<rect x="104" y="94" width="16" height="45" fill="white"/>
<rect x="69" y="94" width="15" height="45" fill="white"/>
<rect x="33" y="94" width="16" height="45" fill="white"/>
<rect x="140" y="94" width="15" height="45" fill="white"/>
</g>
<rect width="26.8482" height="53.2001" rx="13.4241" transform="matrix(0.27119 0.962526 -0.960803 0.277231 67.5586 67.183)" fill="#585858"/>
<path d="M56.1415 70.4773C62.447 68.6579 69.0013 72.3038 70.7811 78.6206L71.617 81.5876C73.3968 87.9044 69.7279 94.5001 63.4225 96.3195L52.045 99.6023L44.764 73.7602L56.1415 70.4773Z" fill="#C08429"/>
<rect x="32.667" y="71.6754" width="26.8011" height="53.2926" rx="13.4006" transform="rotate(45 32.667 71.6754)" fill="#585858"/>
<mask id="mask1_29_275" style="mask-type:alpha" maskUnits="userSpaceOnUse" x="0" y="71" width="52" height="52">
<path d="M32.667 71.6754L51.6182 90.6266L23.4103 118.835C18.177 124.068 9.69227 124.068 4.45903 118.835V118.835C-0.774214 113.601 -0.774216 105.117 4.45902 99.8833L32.667 71.6754Z" fill="#FFE5BD"/>
</mask>
<g mask="url(#mask1_29_275)">
<rect x="8.56284" y="112.625" width="1.98527" height="11" transform="rotate(45 8.56284 112.625)" fill="#8C8C8C"/>
<rect x="3.64954" y="107.712" width="1.98527" height="11" transform="rotate(45 3.64954 107.712)" fill="#8C8C8C"/>
<rect x="12.7742" y="116.836" width="1.98527" height="11" transform="rotate(45 12.7742 116.836)" fill="#8C8C8C"/>
</g>
<rect width="26.8482" height="53.2001" rx="13.4241" transform="matrix(-0.27119 0.962526 0.960803 0.277231 125.562 65.183)" fill="#585858"/>
<path d="M136.979 68.4773C130.673 66.6579 124.119 70.3038 122.339 76.6206L121.503 79.5876C119.723 85.9044 123.392 92.5001 129.698 94.3195L141.075 97.6023L148.356 71.7602L136.979 68.4773Z" fill="#C08429"/>
<rect width="26.8011" height="53.2926" rx="13.4006" transform="matrix(-0.707107 0.707107 0.707107 0.707107 160.453 69.6754)" fill="#585858"/>
<mask id="mask2_29_275" style="mask-type:alpha" maskUnits="userSpaceOnUse" x="141" y="69" width="52" height="52">
<path d="M160.453 69.6754L141.502 88.6266L169.71 116.835C174.943 122.068 183.428 122.068 188.661 116.835V116.835C193.894 111.601 193.894 103.117 188.661 97.8833L160.453 69.6754Z" fill="#FFE5BD"/>
</mask>
<g mask="url(#mask2_29_275)">
<rect width="1.98527" height="11" transform="matrix(-0.707107 0.707107 0.707107 0.707107 184.557 110.625)" fill="#8C8C8C"/>
<rect width="1.98527" height="11" transform="matrix(-0.707107 0.707107 0.707107 0.707107 189.471 105.712)" fill="#8C8C8C"/>
<rect width="1.98527" height="11" transform="matrix(-0.707107 0.707107 0.707107 0.707107 180.346 114.836)" fill="#8C8C8C"/>
</g>
<rect x="81.7321" y="52.3731" width="50" height="22" rx="11" transform="rotate(30 81.7321 52.3731)" fill="#7DE0FF" fill-opacity="0.58" stroke="#FF8A8A" stroke-width="4"/>
<rect x="143.435" y="39.5" width="6" height="59" rx="3" transform="rotate(30 143.435 39.5)" fill="#FF8A8A"/>
<path d="M93.8778 96.3359C96.323 97.7476 99.0222 98.6639 101.822 99.0324C104.621 99.4009 107.465 99.2145 110.192 98.4838C112.92 97.753 115.476 96.4922 117.716 94.7734C119.956 93.0547 121.836 90.9115 123.247 88.4663L116.41 84.5187C115.517 86.0659 114.327 87.422 112.91 88.5096C111.492 89.5973 109.875 90.395 108.149 90.8574C106.423 91.3198 104.623 91.4378 102.852 91.2046C101.081 90.9714 99.3727 90.3916 97.8255 89.4983L93.8778 96.3359Z" fill="#D9D9D9"/>
<path d="M98.5303 39.2276C100.085 38.4813 96.8718 38.0596 96.4074 37.933C95.9119 37.7978 99.1447 36.0645 98.273 35.6894C96.8745 35.0878 95.1951 35.0503 93.7136 34.7647C92.9611 34.6196 92.6418 34.5491 93.5206 34.1294C95.0295 33.4087 96.6849 33.0525 98.2248 32.4085C98.9404 32.1093 98.7231 32.041 98.072 31.9904C96.6495 31.8799 95.2241 31.8224 93.802 31.7009C93.0678 31.6382 88.8451 31.5048 91.7997 30.6234C98.6976 28.5654 106.113 27.8753 113.214 26.8761C114.943 26.6328 118.532 26.144 120.427 25.8387C124.123 25.2435 120.751 25.3332 119.599 25.3C106.507 24.9226 93.4863 23.7144 80.4694 22.2925C76.1762 21.8235 73.0813 21.4408 68.8738 20.9576C67.7269 20.8259 66.5797 20.6962 65.432 20.5716C64.5557 20.4765 63.6279 20.5997 62.8025 20.2902C62.6993 20.2515 63.022 20.2676 63.1322 20.2661C64.3758 20.2488 65.6197 20.2661 66.8634 20.2661C71.5193 20.2661 76.1754 20.2761 80.8313 20.25C89.4505 20.2016 98.5688 20.461 106.982 18.2396C107.816 18.0194 108.384 17.7503 107.231 17.6607C104.461 17.4453 101.633 17.4879 98.86 17.4516C91.2887 17.3525 83.6701 17.2238 76.111 17.7572C75.2083 17.8209 74.3071 17.9107 73.4091 18.0225C72.8857 18.0877 72.3612 18.1615 71.8491 18.2879C71.7241 18.3187 71.4573 18.3761 71.5194 18.4889C71.603 18.641 71.8528 18.5982 72.026 18.6095C73.0378 18.6758 76.003 18.5962 76.6417 18.5774C86.8078 18.2777 96.9785 17.7033 107.127 17.0415C113.815 16.6053 120.501 16.0949 127.158 15.2965C128.49 15.1367 129.819 14.9505 131.146 14.7497C131.98 14.6235 132.816 14.5022 133.639 14.3154C133.93 14.2493 134.291 14.2289 134.475 13.9938C134.57 13.8731 134.255 13.756 134.105 13.7204C133.455 13.5649 132.784 13.51 132.119 13.4309C126.776 12.7948 121.387 12.4307 116.028 11.9674C98.5651 10.4574 81.09 8.8127 63.5825 7.89843C61.5048 7.78993 59.2151 7.70683 57.1012 7.67327C56.8868 7.66987 56.6689 7.64295 56.4579 7.68131C55.7002 7.81907 57.9966 7.74815 58.7657 7.78585C71.1771 8.39426 83.5685 8.99871 95.9973 9.16093C104.762 9.27532 113.653 9.62662 122.413 9.12072C126.619 8.87784 114.049 8.08948 109.853 7.72152C100.907 6.93719 91.9706 6.01476 83.0507 4.97941C82.5183 4.91761 78.4121 4.84592 77.6389 4.13507C77.5579 4.06067 77.771 3.94517 77.872 3.90187C78.5263 3.62146 79.8471 3.4836 80.4131 3.41939C84.7719 2.9249 89.1831 2.86885 93.5608 2.63937C94.0809 2.61211 94.6009 2.58253 95.1208 2.55092C95.4424 2.53136 96.3655 2.33477 96.0858 2.49463C95.6014 2.77139 94.2706 2.78966 93.8181 2.83237C92.6385 2.94371 91.4416 3.02536 90.2558 3.02536C89.6416 3.02536 90.5816 2.8335 90.5855 2.83237C91.9108 2.44256 93.2736 2.17666 94.6222 1.88348" stroke="#585858" stroke-width="3" stroke-linecap="round"/>
</svg>
