<svg width="160" height="152" viewBox="0 0 160 152" fill="none" xmlns="http://www.w3.org/2000/svg">
<rect x="42.035" y="51" width="75.4402" height="88" rx="22" fill="#9D6D25"/>
<path d="M42.035 117.531C42.035 102.441 54.2682 90.2079 69.3586 90.2079H90.1516C105.242 90.2079 117.475 102.441 117.475 117.531V117.531C117.475 129.388 107.863 139 96.0066 139H63.5035C51.6468 139 42.035 129.388 42.035 117.531V117.531Z" fill="#B67F2C" fill-opacity="0.36"/>
<rect x="59.4035" y="22.9873" width="41.6466" height="55.4414" rx="20.8233" fill="#FFE5BD"/>
<ellipse cx="91.1342" cy="51.9567" rx="5.45372" ry="5.49419" fill="#D3D3D3"/>
<ellipse cx="91.1342" cy="50.9578" rx="5.45372" ry="5.49419" fill="white"/>
<ellipse cx="91.1342" cy="52.4562" rx="1.48738" ry="1.49842" fill="#090909"/>
<ellipse cx="69.8151" cy="51.9567" rx="5.45372" ry="5.49419" fill="#D3D3D3"/>
<ellipse cx="69.8151" cy="50.9578" rx="5.45372" ry="5.49419" fill="white"/>
<ellipse cx="69.8151" cy="52.4562" rx="1.48738" ry="1.49842" fill="#090909"/>
<path d="M99.4799 33.0695C98.7151 34.1067 97.8476 35.0723 96.8915 35.9625L87.5664 31.7468C91.0263 29.9515 94.0441 27.5066 96.2871 24.4646C98.6846 21.213 99.9148 17.6595 100.059 14.1169C103.875 19.9185 103.94 27.0207 99.4799 33.0695Z" fill="white" stroke="#DFDFDF" stroke-width="2"/>
<path d="M61.3207 33.0695C62.0855 34.1067 62.953 35.0723 63.9091 35.9625L73.2342 31.7468C69.7743 29.9515 66.7565 27.5066 64.5135 24.4646C62.116 21.213 60.8857 17.6595 60.7414 14.1169C56.926 19.9185 56.8607 27.0207 61.3207 33.0695Z" fill="white" stroke="#DFDFDF" stroke-width="2"/>
<path d="M59.4035 43.8106C59.4035 32.3103 68.7264 22.9873 80.2268 22.9873V22.9873C91.7272 22.9873 101.05 32.3102 101.05 43.8106V50.4583H59.4035V43.8106Z" fill="#D3922F"/>
<path d="M80.2268 22.9873V22.9873C91.7272 22.9873 101.05 32.3102 101.05 43.8106V50.4583H80.2268V22.9873Z" fill="#C08429"/>
<path d="M58.4119 43.4657H102.042V50.4583H58.4119V43.4657Z" fill="#D9D9D9"/>
<path d="M59.4035 58.9493H101.05V70.0923C101.05 81.5927 91.7271 90.9156 80.2268 90.9156V90.9156C68.7264 90.9156 59.4035 81.5927 59.4035 70.0923V58.9493Z" fill="#FFB443"/>
<rect x="74.2772" y="52.9557" width="11.899" height="18.9799" rx="5.94951" fill="#FFD0D0"/>
<path d="M80.2268 52.9557V52.9557C83.5126 52.9557 86.1763 55.6193 86.1763 58.9052V65.9861C86.1763 69.2719 83.5126 71.9356 80.2268 71.9356V71.9356V52.9557Z" fill="#F2C9C9"/>
<rect x="2" y="92" width="156" height="49" rx="24.5" fill="#FF8A8A" stroke="#AF3838" stroke-width="4"/>
<mask id="mask0_27_749" style="mask-type:alpha" maskUnits="userSpaceOnUse" x="4" y="94" width="152" height="45">
<rect x="4" y="94" width="152" height="45" rx="22.5" fill="#FF8A8A"/>
</mask>
<g mask="url(#mask0_27_749)">
<rect x="88" y="94" width="16" height="45" fill="white"/>
<rect x="53" y="94" width="15" height="45" fill="white"/>
<rect x="17" y="94" width="16" height="45" fill="white"/>
<rect x="124" y="94" width="15" height="45" fill="white"/>
</g>
<rect width="26.8482" height="53.2001" rx="13.4241" transform="matrix(0.872369 0.488848 -0.483358 0.875423 38.7147 52.1514)" fill="#F9DEB5"/>
<path d="M32.971 62.5539C36.1432 56.8087 43.3558 54.7521 49.081 57.9603L51.7701 59.4672C57.4952 62.6753 59.5648 69.9334 56.3926 75.6786L50.6689 86.045L27.2473 72.9203L32.971 62.5539Z" fill="#C08429"/>
<rect x="17.2191" y="80" width="26.8011" height="53.2926" rx="13.4006" fill="#FFE5BD"/>
<mask id="mask1_27_749" style="mask-type:alpha" maskUnits="userSpaceOnUse" x="17" y="80" width="28" height="54">
<path d="M17.2191 80H44.0203V119.892C44.0203 127.293 38.0206 133.293 30.6197 133.293V133.293C23.2188 133.293 17.2191 127.293 17.2191 119.892V80Z" fill="#FFE5BD"/>
</mask>
<g mask="url(#mask1_27_749)">
<rect x="29.1308" y="126" width="1.98527" height="11" fill="#E6CEAA"/>
<rect x="22.1823" y="126" width="1.98527" height="11" fill="#E6CEAA"/>
<rect x="35.0865" y="126" width="1.98527" height="11" fill="#E6CEAA"/>
</g>
<rect width="26.8482" height="53.2001" rx="13.4241" transform="matrix(-0.872369 0.488848 0.483358 0.875423 122.037 52.1514)" fill="#F9DEB5"/>
<path d="M127.78 62.5539C124.608 56.8087 117.396 54.7521 111.67 57.9603L108.981 59.4672C103.256 62.6753 101.187 69.9334 104.359 75.6786L110.083 86.045L133.504 72.9203L127.78 62.5539Z" fill="#C08429"/>
<rect width="26.8011" height="53.2926" rx="13.4006" transform="matrix(-1 0 0 1 143.532 80)" fill="#FFE5BD"/>
<mask id="mask2_27_749" style="mask-type:alpha" maskUnits="userSpaceOnUse" x="116" y="80" width="28" height="54">
<path d="M143.532 80H116.731V119.892C116.731 127.293 122.731 133.293 130.132 133.293V133.293C137.533 133.293 143.532 127.293 143.532 119.892V80Z" fill="#FFE5BD"/>
</mask>
<g mask="url(#mask2_27_749)">
<rect width="1.98527" height="11" transform="matrix(-1 0 0 1 131.621 126)" fill="#E6CEAA"/>
<rect width="1.98527" height="11" transform="matrix(-1 0 0 1 138.569 126)" fill="#E6CEAA"/>
<rect width="1.98527" height="11" transform="matrix(-1 0 0 1 125.665 126)" fill="#E6CEAA"/>
</g>
<rect x="56" y="42" width="50" height="22" rx="11" fill="#7DE0FF" fill-opacity="0.58" stroke="#FF8A8A" stroke-width="4"/>
<rect x="103" width="6" height="59" rx="3" fill="#FF8A8A"/>
<path d="M88.5 74C91.3234 74 94.1192 73.4439 96.7277 72.3634C99.3362 71.2829 101.706 69.6993 103.703 67.7028C105.699 65.7063 107.283 63.3362 108.363 60.7277C109.444 58.1192 110 55.3234 110 52.5L102.105 52.5C102.105 54.2866 101.753 56.0557 101.069 57.7063C100.385 59.3569 99.3833 60.8566 98.1199 62.1199C96.8566 63.3833 95.3569 64.3854 93.7063 65.0691C92.0557 65.7528 90.2866 66.1047 88.5 66.1047L88.5 74Z" fill="#D9D9D9"/>
</svg>
