<svg width="58" height="116" viewBox="0 0 58 116" fill="none" xmlns="http://www.w3.org/2000/svg">
<path d="M10.5049 14.7126C11.2647 6.649 18.0345 0.487125 26.1339 0.487125V0.487125C33.8598 0.487125 40.4371 6.10853 41.6405 13.7401L53.1671 86.8353C55.5606 102.014 43.8286 115.741 28.4624 115.741V115.741C13.7229 115.741 2.17994 103.059 3.56273 88.3847L10.5049 14.7126Z" fill="#9747FF"/>
<mask id="mask0_42_658" style="mask-type:alpha" maskUnits="userSpaceOnUse" x="3" y="0" width="51" height="116">
<path d="M10.5049 14.7126C11.2647 6.649 18.0345 0.487125 26.1339 0.487125V0.487125C33.8598 0.487125 40.4371 6.10853 41.6405 13.7401L53.1671 86.8353C55.5606 102.014 43.8286 115.741 28.4624 115.741V115.741C13.7229 115.741 2.17994 103.059 3.56273 88.3847L10.5049 14.7126Z" fill="#CBA4FF"/>
</mask>
<g mask="url(#mask0_42_658)">
<path d="M0.309408 14.7126C1.06925 6.64898 7.83905 0.487109 15.9384 0.487109V0.487109C23.6643 0.487109 30.2416 6.10852 31.445 13.7401L42.9716 86.8352C45.3651 102.014 33.6331 115.741 18.2669 115.741V115.741C3.52744 115.741 -8.01555 103.059 -6.63277 88.3847L0.309408 14.7126Z" fill="#CBA4FF"/>
</g>
<mask id="mask1_42_658" style="mask-type:alpha" maskUnits="userSpaceOnUse" x="3" y="0" width="51" height="116">
<path d="M10.5049 14.7126C11.2647 6.649 18.0345 0.487125 26.1339 0.487125V0.487125C33.8598 0.487125 40.4371 6.10853 41.6405 13.7401L53.1671 86.8353C55.5606 102.014 43.8286 115.741 28.4624 115.741V115.741C13.7229 115.741 2.17994 103.059 3.56273 88.3847L10.5049 14.7126Z" fill="#CBA4FF"/>
</mask>
<g mask="url(#mask1_42_658)">
<path d="M0.309408 14.7126C1.06925 6.64898 7.83905 0.487109 15.9384 0.487109V0.487109C23.6643 0.487109 30.2416 6.10852 31.445 13.7401L42.9716 86.8352C45.3651 102.014 33.6331 115.741 18.2669 115.741V115.741C3.52744 115.741 -8.01555 103.059 -6.63277 88.3847L0.309408 14.7126Z" fill="#CBA4FF"/>
</g>
</svg>
