<svg width="184" height="196" viewBox="0 0 184 196" fill="none" xmlns="http://www.w3.org/2000/svg">
<mask id="path-1-outside-1_60_892" maskUnits="userSpaceOnUse" x="0.653458" y="78.1597" width="96" height="113" fill="black">
<rect fill="white" x="0.653458" y="78.1597" width="96" height="113"/>
<path fill-rule="evenodd" clip-rule="evenodd" d="M21.0071 82.1597H76.2192C76.2192 82.1597 92.1452 113.496 92.1452 134.615C92.1452 155.734 76.2192 187.07 76.2192 187.07L75.7916 187.07H20.5795C20.5795 187.07 4.65346 155.734 4.65346 134.615C4.65346 113.496 20.5795 82.1597 20.5795 82.1597H21.0071V82.1597Z"/>
</mask>
<path fill-rule="evenodd" clip-rule="evenodd" d="M21.0071 82.1597H76.2192C76.2192 82.1597 92.1452 113.496 92.1452 134.615C92.1452 155.734 76.2192 187.07 76.2192 187.07L75.7916 187.07H20.5795C20.5795 187.07 4.65346 155.734 4.65346 134.615C4.65346 113.496 20.5795 82.1597 20.5795 82.1597H21.0071V82.1597Z" fill="#FFB342"/>
<path d="M76.2192 82.1597L79.7851 80.3474L78.6732 78.1597H76.2192V82.1597ZM21.0071 82.1597V78.1597H17.0071V82.1597H21.0071ZM76.2192 187.07L76.2194 191.07L78.6733 191.07L79.7851 188.882L76.2192 187.07ZM75.7916 187.07L75.7916 191.07L75.7918 191.07L75.7916 187.07ZM20.5795 187.07L17.0136 188.882L18.1254 191.07H20.5795V187.07ZM20.5795 82.1597V78.1597H18.1254L17.0136 80.3474L20.5795 82.1597ZM21.0071 82.1597V86.1597H25.0071V82.1597H21.0071ZM76.2192 78.1597H21.0071V86.1597H76.2192V78.1597ZM96.1452 134.615C96.1452 123.277 91.9255 109.58 87.9211 99.0463C85.8922 93.709 83.8656 89.0497 82.3458 85.7236C81.5853 84.0591 80.9501 82.7248 80.5027 81.8022C80.279 81.3408 80.1021 80.9821 79.9799 80.7363C79.9188 80.6134 79.8714 80.5187 79.8386 80.4534C79.8222 80.4208 79.8095 80.3956 79.8005 80.3778C79.796 80.369 79.7925 80.362 79.7899 80.3569C79.7886 80.3544 79.7876 80.3523 79.7868 80.3507C79.7864 80.3499 79.7859 80.3491 79.7857 80.3487C79.7854 80.348 79.7851 80.3474 76.2192 82.1597C72.6533 83.972 72.6531 83.9716 72.653 83.9714C72.653 83.9715 72.653 83.9713 72.6531 83.9715C72.6532 83.9718 72.6536 83.9726 72.6543 83.9739C72.6555 83.9764 72.6578 83.9808 72.6609 83.9871C72.6673 83.9996 72.6774 84.0197 72.6911 84.047C72.7186 84.1016 72.7606 84.1854 72.8161 84.2972C72.9272 84.5207 73.0925 84.8559 73.3043 85.2926C73.7279 86.1662 74.3369 87.445 75.0694 89.0482C76.5358 92.2576 78.4906 96.7523 80.4432 101.889C84.4018 112.303 88.1452 124.834 88.1452 134.615H96.1452ZM76.2192 187.07C79.7851 188.882 79.7854 188.882 79.7857 188.881C79.7859 188.881 79.7864 188.88 79.7868 188.879C79.7876 188.877 79.7886 188.875 79.7899 188.873C79.7925 188.868 79.796 188.861 79.8005 188.852C79.8095 188.834 79.8222 188.809 79.8386 188.776C79.8714 188.711 79.9188 188.616 79.9799 188.493C80.1021 188.248 80.279 187.889 80.5027 187.428C80.9501 186.505 81.5853 185.171 82.3458 183.506C83.8656 180.18 85.8922 175.521 87.9211 170.184C91.9255 159.649 96.1452 145.953 96.1452 134.615H88.1452C88.1452 144.396 84.4018 156.927 80.4432 167.341C78.4906 172.478 76.5358 176.972 75.0694 180.182C74.3369 181.785 73.7279 183.064 73.3043 183.937C73.0925 184.374 72.9272 184.709 72.8161 184.933C72.7606 185.044 72.7186 185.128 72.6911 185.183C72.6774 185.21 72.6673 185.23 72.6609 185.243C72.6578 185.249 72.6555 185.253 72.6543 185.256C72.6536 185.257 72.6532 185.258 72.6531 185.258C72.653 185.258 72.653 185.258 72.653 185.258C72.6531 185.258 72.6533 185.258 76.2192 187.07ZM75.7918 191.07L76.2194 191.07L76.219 183.07L75.7914 183.07L75.7918 191.07ZM75.7916 183.07H20.5795V191.07H75.7916V183.07ZM20.5795 187.07C24.1453 185.258 24.1455 185.258 24.1456 185.258C24.1456 185.258 24.1457 185.258 24.1456 185.258C24.1454 185.258 24.145 185.257 24.1444 185.256C24.1431 185.253 24.1409 185.249 24.1377 185.243C24.1313 185.23 24.1212 185.21 24.1075 185.183C24.08 185.128 24.0381 185.044 23.9825 184.933C23.8714 184.709 23.7061 184.374 23.4943 183.937C23.0707 183.064 22.4618 181.785 21.7292 180.182C20.2628 176.972 18.308 172.478 16.3554 167.341C12.3968 156.927 8.65346 144.396 8.65346 134.615H0.653458C0.653458 145.953 4.87311 159.649 8.87749 170.184C10.9064 175.521 12.9331 180.18 14.4528 183.506C15.2133 185.171 15.8486 186.505 16.2959 187.428C16.5197 187.889 16.6965 188.248 16.8187 188.494C16.8798 188.616 16.9272 188.711 16.96 188.776C16.9764 188.809 16.9892 188.834 16.9981 188.852C17.0026 188.861 17.0062 188.868 17.0087 188.873C17.01 188.875 17.0111 188.878 17.0119 188.879C17.0123 188.88 17.0127 188.881 17.0129 188.881C17.0133 188.882 17.0136 188.882 20.5795 187.07ZM8.65346 134.615C8.65346 124.834 12.3968 112.303 16.3554 101.889C18.308 96.7523 20.2628 92.2576 21.7292 89.0483C22.4618 87.445 23.0707 86.1662 23.4943 85.2926C23.7061 84.8559 23.8714 84.5207 23.9825 84.2972C24.0381 84.1855 24.08 84.1016 24.1075 84.047C24.1212 84.0197 24.1313 83.9997 24.1377 83.9871C24.1409 83.9808 24.1431 83.9764 24.1444 83.9739C24.145 83.9726 24.1454 83.9718 24.1456 83.9715C24.1457 83.9714 24.1456 83.9715 24.1456 83.9714C24.1455 83.9716 24.1453 83.972 20.5795 82.1597C17.0136 80.3474 17.0133 80.348 17.0129 80.3487C17.0127 80.3491 17.0123 80.3499 17.0119 80.3507C17.0111 80.3523 17.01 80.3544 17.0087 80.3569C17.0062 80.362 17.0026 80.369 16.9981 80.3779C16.9892 80.3956 16.9764 80.4208 16.96 80.4535C16.9272 80.5187 16.8798 80.6134 16.8187 80.7363C16.6965 80.9821 16.5197 81.3408 16.2959 81.8022C15.8486 82.7248 15.2133 84.0591 14.4528 85.7236C12.9331 89.0497 10.9064 93.709 8.87749 99.0463C4.87311 109.58 0.653458 123.277 0.653458 134.615H8.65346ZM20.5795 86.1597H21.0071V78.1597H20.5795V86.1597ZM17.0071 82.1597V82.1597H25.0071V82.1597H17.0071Z" fill="#494949" mask="url(#path-1-outside-1_60_892)"/>
<path fill-rule="evenodd" clip-rule="evenodd" d="M36.5382 187.07H30.9609C30.9609 187.07 15.0349 155.734 15.0349 134.615C15.0349 113.496 30.9609 82.1597 30.9609 82.1597H36.5382C36.5382 82.1597 20.6122 113.496 20.6122 134.615C20.6122 155.734 36.5382 187.07 36.5382 187.07ZM61.3946 187.07H66.9719C66.9719 187.07 82.8979 155.734 82.8979 134.615C82.8979 113.496 66.9719 82.1597 66.9719 82.1597H61.3946C61.3946 82.1597 77.3206 113.496 77.3206 134.615C77.3206 155.734 61.3946 187.07 61.3946 187.07ZM51.3754 87.1414H46.2588V187.07H51.3754V87.1414Z" fill="#D3922F"/>
<path d="M16.3232 82.1597H80.4639V91.7696H16.3232V82.1597Z" fill="#C9C9C9"/>
<path d="M16.3232 177.46H80.4639V187.07H16.3232V177.46Z" fill="#C7C7C7"/>
<path d="M4.64189 123.851H92.1452V151.508H4.64189V123.851Z" fill="#9D6D25"/>
<path d="M16.3232 80.1597H14.3232V82.1597V91.7696V93.7696H16.3232H80.4639H82.4639V91.7696V82.1597V80.1597H80.4639H16.3232ZM16.3232 175.46H14.3232V177.46V187.07V189.07H16.3232H80.4639H82.4639V187.07V177.46V175.46H80.4639H16.3232ZM4.64189 121.851H2.64189V123.851V151.508V153.508H4.64189H92.1452H94.1452V151.508V123.851V121.851H92.1452H4.64189Z" stroke="#494949" stroke-width="4"/>
<mask id="path-6-outside-2_60_892" maskUnits="userSpaceOnUse" x="12.3974" y="-0.436528" width="113" height="96" fill="black">
<rect fill="white" x="12.3974" y="-0.436528" width="113" height="96"/>
<path fill-rule="evenodd" clip-rule="evenodd" d="M16.3974 75.2098L16.3974 19.9977C16.3974 19.9977 47.7334 4.07171 68.8526 4.07171C89.9719 4.07171 121.308 19.9977 121.308 19.9977L121.308 20.4254L121.308 75.2098L121.308 75.6375C121.308 75.6375 89.9719 91.5635 68.8527 91.5635C47.7334 91.5635 16.3974 75.6375 16.3974 75.6375L16.3974 75.2098Z"/>
</mask>
<path fill-rule="evenodd" clip-rule="evenodd" d="M16.3974 75.2098L16.3974 19.9977C16.3974 19.9977 47.7334 4.07171 68.8526 4.07171C89.9719 4.07171 121.308 19.9977 121.308 19.9977L121.308 20.4254L121.308 75.2098L121.308 75.6375C121.308 75.6375 89.9719 91.5635 68.8527 91.5635C47.7334 91.5635 16.3974 75.6375 16.3974 75.6375L16.3974 75.2098Z" fill="#FFB342"/>
<path d="M16.3974 19.9977L14.5851 16.4318L12.3974 17.5437L12.3974 19.9977L16.3974 19.9977ZM16.3974 75.2098L12.3974 75.2098L12.3974 75.2099L16.3974 75.2098ZM121.308 19.9977L125.308 19.9976L125.308 17.5437L123.12 16.4318L121.308 19.9977ZM121.308 20.4254L125.308 20.4254L125.308 20.4253L121.308 20.4254ZM121.308 75.2098L117.308 75.2098L117.308 75.2099L121.308 75.2098ZM121.308 75.6375L123.12 79.2034L125.308 78.0915L125.308 75.6374L121.308 75.6375ZM16.3974 75.6375L12.3974 75.6376L12.3975 78.0915L14.5851 79.2034L16.3974 75.6375ZM12.3974 19.9977L12.3974 75.2098L20.3974 75.2098L20.3974 19.9977L12.3974 19.9977ZM68.8526 0.071714C57.5143 0.0717145 43.8181 4.29137 33.284 8.29575C27.9467 10.3246 23.2874 12.3513 19.9613 13.8711C18.2968 14.6316 16.9625 15.2668 16.0399 15.7142C15.5785 15.9379 15.2199 16.1148 14.9741 16.237C14.8511 16.298 14.7564 16.3455 14.6912 16.3783C14.6586 16.3947 14.6333 16.4074 14.6156 16.4164C14.6067 16.4209 14.5997 16.4244 14.5947 16.427C14.5921 16.4283 14.59 16.4293 14.5885 16.4301C14.5877 16.4305 14.5868 16.431 14.5864 16.4312C14.5857 16.4315 14.5851 16.4318 16.3974 19.9977C18.2097 23.5636 18.2094 23.5638 18.2091 23.5639C18.2092 23.5639 18.2091 23.5639 18.2093 23.5638C18.2096 23.5637 18.2104 23.5633 18.2116 23.5626C18.2142 23.5614 18.2186 23.5591 18.2248 23.5559C18.2374 23.5496 18.2574 23.5395 18.2847 23.5258C18.3394 23.4983 18.4232 23.4563 18.5349 23.4008C18.7585 23.2896 19.0937 23.1243 19.5304 22.9126C20.4039 22.489 21.6828 21.88 23.286 21.1475C26.4954 19.6811 30.99 17.7263 36.1266 15.7737C46.5404 11.8151 59.0718 8.07171 68.8526 8.07171L68.8526 0.071714ZM121.308 19.9977C123.12 16.4318 123.12 16.4315 123.119 16.4312C123.118 16.431 123.118 16.4305 123.117 16.4301C123.115 16.4293 123.113 16.4283 123.111 16.427C123.106 16.4244 123.099 16.4209 123.09 16.4164C123.072 16.4074 123.047 16.3947 123.014 16.3783C122.949 16.3455 122.854 16.298 122.731 16.2369C122.485 16.1148 122.127 15.9379 121.665 15.7142C120.743 15.2668 119.408 14.6316 117.744 13.8711C114.418 12.3513 109.759 10.3246 104.421 8.29574C93.8872 4.29137 80.191 0.0717135 68.8526 0.071714L68.8526 8.07171C78.6335 8.07171 91.1649 11.8151 101.579 15.7737C106.715 17.7263 111.21 19.6811 114.419 21.1475C116.023 21.88 117.301 22.489 118.175 22.9126C118.612 23.1243 118.947 23.2896 119.17 23.4008C119.282 23.4563 119.366 23.4983 119.421 23.5258C119.448 23.5395 119.468 23.5496 119.48 23.5559C119.487 23.5591 119.491 23.5613 119.494 23.5626C119.495 23.5633 119.496 23.5637 119.496 23.5638C119.496 23.5639 119.496 23.5639 119.496 23.5639C119.496 23.5638 119.496 23.5636 121.308 19.9977ZM125.308 20.4253L125.308 19.9976L117.308 19.9978L117.308 20.4254L125.308 20.4253ZM117.308 20.4254L117.308 75.2098L125.308 75.2098L125.308 20.4254L117.308 20.4254ZM117.308 75.2099L117.308 75.6375L125.308 75.6374L125.308 75.2097L117.308 75.2099ZM121.308 75.6375C119.496 72.0716 119.496 72.0714 119.496 72.0713C119.496 72.0713 119.496 72.0713 119.496 72.0713C119.496 72.0715 119.495 72.0719 119.494 72.0726C119.491 72.0738 119.487 72.0761 119.48 72.0792C119.468 72.0856 119.448 72.0957 119.421 72.1094C119.366 72.1369 119.282 72.1789 119.17 72.2344C118.947 72.3455 118.612 72.5108 118.175 72.7226C117.301 73.1462 116.023 73.7552 114.419 74.4877C111.21 75.9541 106.715 77.9089 101.579 79.8615C91.165 83.8201 78.6335 87.5635 68.8527 87.5635L68.8527 95.5635C80.191 95.5635 93.8872 91.3438 104.421 87.3394C109.759 85.3105 114.418 83.2839 117.744 81.7641C119.408 81.0036 120.743 80.3684 121.665 79.921C122.127 79.6973 122.485 79.5204 122.731 79.3982C122.854 79.3371 122.949 79.2897 123.014 79.2569C123.047 79.2405 123.072 79.2278 123.09 79.2188C123.099 79.2143 123.106 79.2108 123.111 79.2082C123.113 79.2069 123.115 79.2059 123.117 79.2051C123.118 79.2047 123.118 79.2042 123.119 79.204C123.12 79.2037 123.12 79.2034 121.308 75.6375ZM68.8527 87.5635C59.0718 87.5635 46.5404 83.8201 36.1267 79.8615C30.99 77.9089 26.4954 75.9541 23.286 74.4877C21.6828 73.7552 20.404 73.1462 19.5304 72.7226C19.0937 72.5108 18.7585 72.3455 18.535 72.2344C18.4232 72.1789 18.3394 72.1369 18.2847 72.1094C18.2574 72.0957 18.2374 72.0856 18.2249 72.0792C18.2186 72.0761 18.2142 72.0738 18.2116 72.0726C18.2104 72.0719 18.2096 72.0715 18.2093 72.0714C18.2091 72.0713 18.2092 72.0713 18.2092 72.0713C18.2094 72.0714 18.2097 72.0716 16.3974 75.6375C14.5851 79.2034 14.5857 79.2037 14.5864 79.204C14.5868 79.2042 14.5877 79.2047 14.5885 79.2051C14.5901 79.2059 14.5921 79.2069 14.5947 79.2082C14.5998 79.2108 14.6067 79.2143 14.6156 79.2188C14.6333 79.2278 14.6586 79.2405 14.6912 79.2569C14.7565 79.2897 14.8512 79.3371 14.9741 79.3982C15.2199 79.5204 15.5786 79.6973 16.0399 79.921C16.9625 80.3684 18.2968 81.0036 19.9613 81.7641C23.2875 83.2839 27.9467 85.3106 33.284 87.3394C43.8181 91.3438 57.5143 95.5635 68.8527 95.5635L68.8527 87.5635ZM20.3974 75.6374L20.3974 75.2097L12.3974 75.2099L12.3974 75.6376L20.3974 75.6374Z" fill="#494949" mask="url(#path-6-outside-2_60_892)"/>
<path fill-rule="evenodd" clip-rule="evenodd" d="M121.308 34.8223L121.308 29.2451C121.308 29.2451 89.9719 13.3191 68.8526 13.3191C47.7334 13.3191 16.3974 29.2451 16.3974 29.2451L16.3974 34.8223L16.3974 65.256C16.3974 65.256 47.7334 81.182 68.8526 81.182C89.9719 81.182 121.308 65.256 121.308 65.256L121.308 59.6787C121.308 59.6787 89.9719 75.6047 68.8526 75.6047C47.7334 75.6047 16.3974 59.6787 16.3974 59.6787L16.3974 34.8223C16.4006 34.8207 47.7345 18.8963 68.8526 18.8963C89.9719 18.8963 121.308 34.8223 121.308 34.8223ZM121.308 44.8416L21.3792 44.8416L21.3792 49.9581L121.308 49.9581L121.308 44.8416Z" fill="#D3922F"/>
<path d="M16.3974 79.8938L16.3974 15.753L26.0074 15.753L26.0074 79.8938L16.3974 79.8938Z" fill="#C9C9C9"/>
<path d="M111.698 79.8938L111.698 15.753L121.308 15.753L121.308 79.8938L111.698 79.8938Z" fill="#C7C7C7"/>
<path d="M58.0886 91.5751L58.0886 4.07176L85.7456 4.07175L85.7456 91.5751L58.0886 91.5751Z" fill="#9D6D25"/>
<path d="M14.3974 79.8938L14.3974 81.8938L16.3974 81.8938L26.0074 81.8938L28.0074 81.8938L28.0074 79.8938L28.0074 15.753L28.0074 13.753L26.0074 13.753L16.3974 13.753L14.3974 13.753L14.3974 15.753L14.3974 79.8938ZM109.698 79.8938L109.698 81.8938L111.698 81.8938L121.308 81.8938L123.308 81.8938L123.308 79.8938L123.308 15.753L123.308 13.753L121.308 13.753L111.698 13.753L109.698 13.753L109.698 15.753L109.698 79.8938ZM56.0886 91.5751L56.0886 93.5751L58.0886 93.5751L85.7456 93.5751L87.7456 93.5751L87.7456 91.5751L87.7456 4.07175L87.7456 2.07175L85.7456 2.07175L58.0886 2.07175L56.0886 2.07175L56.0886 4.07175L56.0886 91.5751Z" stroke="#494949" stroke-width="4"/>
<mask id="path-11-outside-3_60_892" maskUnits="userSpaceOnUse" x="50.0213" y="55.0897" width="139.638" height="145.861" fill="black">
<rect fill="white" x="50.0213" y="55.0897" width="139.638" height="145.861"/>
<path fill-rule="evenodd" clip-rule="evenodd" d="M117.093 68.9847L69.2778 96.5908C69.2778 96.5908 71.1534 131.692 81.7131 149.981C92.2727 168.271 121.733 187.446 121.733 187.446L122.103 187.232L169.918 159.626C169.918 159.626 168.043 124.525 157.483 106.235C146.924 87.9457 117.463 68.7709 117.463 68.7709L117.093 68.9847Z"/>
</mask>
<path fill-rule="evenodd" clip-rule="evenodd" d="M117.093 68.9847L69.2778 96.5908C69.2778 96.5908 71.1534 131.692 81.7131 149.981C92.2727 168.271 121.733 187.446 121.733 187.446L122.103 187.232L169.918 159.626C169.918 159.626 168.043 124.525 157.483 106.235C146.924 87.9457 117.463 68.7709 117.463 68.7709L117.093 68.9847Z" fill="#FFB342"/>
<path d="M69.2778 96.5908L67.2778 93.1267L65.1525 94.3537L65.2835 96.8042L69.2778 96.5908ZM117.093 68.9847L115.093 65.5206L115.093 65.5206L117.093 68.9847ZM121.733 187.446L119.551 190.798L121.608 192.137L123.733 190.91L121.733 187.446ZM122.103 187.232L124.103 190.696L124.103 190.696L122.103 187.232ZM169.918 159.626L171.918 163.09L174.044 161.863L173.913 159.413L169.918 159.626ZM117.463 68.7709L119.645 65.4185L117.588 64.0798L115.463 65.3068L117.463 68.7709ZM71.2778 100.055L119.093 72.4488L115.093 65.5206L67.2778 93.1267L71.2778 100.055ZM85.1772 147.981C80.2867 139.511 77.2628 126.787 75.4842 115.789C74.607 110.364 74.0525 105.494 73.7178 101.982C73.5506 100.227 73.4385 98.8149 73.3686 97.8465C73.3336 97.3625 73.3092 96.9895 73.2936 96.7404C73.2859 96.6158 73.2803 96.5222 73.2768 96.4612C73.275 96.4307 73.2738 96.4083 73.273 96.3942C73.2726 96.3872 73.2723 96.3823 73.2722 96.3795C73.2721 96.378 73.2721 96.3772 73.272 96.3768C73.272 96.3766 73.272 96.3768 73.272 96.3767C73.272 96.3769 73.2721 96.3773 69.2778 96.5908C65.2835 96.8042 65.2835 96.8049 65.2835 96.8057C65.2836 96.8061 65.2836 96.8071 65.2837 96.808C65.2838 96.8097 65.2839 96.812 65.284 96.8149C65.2843 96.8206 65.2848 96.8284 65.2853 96.8383C65.2864 96.8582 65.288 96.8864 65.2901 96.9229C65.2943 96.9958 65.3006 97.1015 65.3092 97.2385C65.3263 97.5124 65.3524 97.9115 65.3894 98.4229C65.4633 99.4456 65.5803 100.919 65.7539 102.741C66.1008 106.381 66.6753 111.429 67.5869 117.066C69.386 128.191 72.5798 142.162 78.249 151.981L85.1772 147.981ZM121.733 187.446C123.915 184.093 123.915 184.094 123.916 184.094C123.915 184.094 123.916 184.094 123.915 184.094C123.915 184.094 123.914 184.093 123.913 184.092C123.911 184.091 123.907 184.088 123.901 184.084C123.889 184.076 123.87 184.064 123.845 184.047C123.794 184.014 123.715 183.962 123.611 183.893C123.403 183.755 123.093 183.548 122.691 183.275C121.887 182.73 120.72 181.927 119.284 180.905C116.41 178.859 112.47 175.944 108.21 172.472C99.5751 165.433 90.0676 156.452 85.1772 147.981L78.249 151.981C83.9181 161.801 94.4206 171.552 103.155 178.673C107.581 182.28 111.666 185.302 114.645 187.423C116.136 188.484 117.353 189.322 118.202 189.897C118.627 190.185 118.959 190.407 119.188 190.559C119.302 190.635 119.391 190.693 119.452 190.733C119.482 190.753 119.506 190.769 119.522 190.78C119.531 190.785 119.537 190.789 119.542 190.792C119.544 190.794 119.546 190.795 119.548 190.796C119.549 190.797 119.549 190.797 119.55 190.798C119.55 190.798 119.551 190.798 121.733 187.446ZM120.103 183.768L119.733 183.982L123.733 190.91L124.103 190.696L120.103 183.768ZM124.103 190.696L171.918 163.09L167.918 156.162L120.103 183.768L124.103 190.696ZM169.918 159.626C173.913 159.413 173.913 159.412 173.913 159.411C173.913 159.411 173.913 159.41 173.913 159.409C173.912 159.407 173.912 159.405 173.912 159.402C173.912 159.396 173.911 159.388 173.911 159.378C173.91 159.359 173.908 159.33 173.906 159.294C173.902 159.221 173.896 159.115 173.887 158.978C173.87 158.704 173.844 158.305 173.807 157.794C173.733 156.771 173.616 155.298 173.442 153.476C173.095 149.836 172.521 144.788 171.609 139.151C169.81 128.026 166.616 114.055 160.947 104.235L154.019 108.235C158.909 116.706 161.933 129.43 163.712 140.428C164.589 145.853 165.144 150.723 165.478 154.235C165.646 155.99 165.758 157.402 165.828 158.37C165.863 158.854 165.887 159.227 165.903 159.476C165.91 159.601 165.916 159.695 165.919 159.756C165.921 159.786 165.922 159.809 165.923 159.823C165.924 159.83 165.924 159.835 165.924 159.837C165.924 159.839 165.924 159.84 165.924 159.84C165.924 159.84 165.924 159.84 165.924 159.84C165.924 159.84 165.924 159.839 169.918 159.626ZM160.947 104.235C155.278 94.4162 144.776 84.6647 136.041 77.5441C131.615 73.9364 127.53 70.9146 124.551 68.794C123.06 67.7328 121.843 66.8949 120.994 66.3196C120.57 66.0318 120.237 65.8096 120.008 65.6579C119.894 65.582 119.806 65.5237 119.745 65.4836C119.714 65.4635 119.69 65.448 119.674 65.4371C119.665 65.4317 119.659 65.4274 119.654 65.4243C119.652 65.4227 119.65 65.4215 119.648 65.4205C119.648 65.42 119.647 65.4195 119.646 65.4193C119.646 65.4188 119.645 65.4185 117.463 68.7709C115.281 72.1234 115.281 72.1231 115.281 72.123C115.281 72.123 115.281 72.123 115.281 72.1231C115.281 72.1233 115.282 72.1238 115.283 72.1245C115.285 72.1261 115.289 72.1288 115.295 72.1326C115.307 72.1403 115.326 72.1526 115.351 72.1694C115.403 72.203 115.481 72.2546 115.585 72.3236C115.793 72.4616 116.104 72.6692 116.505 72.9416C117.309 73.4863 118.476 74.2893 119.912 75.3115C122.786 77.3577 126.727 80.2728 130.986 83.7449C139.621 90.7841 149.129 99.765 154.019 108.235L160.947 104.235ZM115.463 65.3068L115.093 65.5206L119.093 72.4489L119.463 72.2351L115.463 65.3068Z" fill="#494949" mask="url(#path-11-outside-3_60_892)"/>
<path fill-rule="evenodd" clip-rule="evenodd" d="M157.08 167.038L161.91 164.25C161.91 164.25 160.034 129.149 149.475 110.859C138.915 92.5693 109.455 73.3946 109.455 73.3946L104.625 76.1832C104.645 76.1965 134.089 95.3643 144.645 113.648C155.204 131.938 157.08 167.038 157.08 167.038ZM143.972 174.606L135.554 179.467C135.554 179.467 106.093 160.292 95.5338 142.002C84.9795 123.721 83.1004 88.6467 83.0985 88.6114L78.2684 91.4001C78.2684 91.4001 80.1441 126.501 90.7037 144.791C101.263 163.08 130.724 182.255 130.724 182.255L143.972 174.606ZM143.972 174.606L94.0077 88.0654L98.4387 85.5072L148.403 172.048L143.972 174.606Z" fill="#D3922F"/>
<path d="M65.5917 98.7189L121.139 66.6486L125.944 74.971L70.3967 107.041L65.5917 98.7189Z" fill="#C9C9C9"/>
<path d="M113.242 181.252L168.789 149.181L173.594 157.504L118.047 189.574L113.242 181.252Z" fill="#C7C7C7"/>
<path d="M76.321 140.665L152.101 96.9135L165.93 120.865L90.1495 164.617L76.321 140.665Z" fill="#9D6D25"/>
<path d="M64.5917 96.9869L62.8596 97.9869L63.8596 99.7189L68.6646 108.041L69.6646 109.773L71.3967 108.773L126.944 76.7031L128.676 75.7031L127.676 73.971L122.871 65.6486L121.871 63.9165L120.139 64.9165L64.5917 96.9869ZM112.242 179.52L110.51 180.52L111.51 182.252L116.315 190.574L117.315 192.306L119.047 191.306L174.594 159.236L176.327 158.236L175.327 156.504L170.522 148.181L169.522 146.449L167.789 147.449L112.242 179.52ZM75.321 138.933L73.589 139.933L74.589 141.665L88.4175 165.617L89.4175 167.349L91.1495 166.349L166.93 122.597L168.662 121.597L167.662 119.865L153.833 95.9135L152.833 94.1815L151.101 95.1815L75.321 138.933Z" stroke="#494949" stroke-width="4"/>
</svg>
