<svg width="585" height="383" viewBox="0 0 585 383" fill="none" xmlns="http://www.w3.org/2000/svg">
<path d="M581.488 305.641C579.912 346.975 545.906 380 504.186 380H80.3587C38.6393 380 4.63323 346.975 3.0571 305.641H581.488Z" fill="url(#paint0_linear_1_40)" stroke="#D3922F" stroke-width="6"/>
<path d="M2.69083 316.898H188.908V323.795H2.69083V316.898Z" fill="#D3922F"/>
<rect x="14.2572" y="341.525" width="221.564" height="6.89692" fill="#D3922F"/>
<path d="M354.162 330.415H575.725V337.312H354.162V330.415Z" fill="#D3922F"/>
<rect x="442.534" y="38.7548" width="21.1704" height="263.969" fill="#D3922F"/>
<path d="M339.194 49.6697C339.504 48.0856 340.748 46.8486 342.332 46.548L569.017 3.51948C571.702 3.00992 574.095 5.28218 573.726 7.98958L564.635 74.684C558.489 119.768 558.489 165.477 564.635 210.561L573.746 277.397C574.111 280.077 571.767 282.34 569.102 281.879L342.379 242.712C340.768 242.434 339.495 241.189 339.181 239.585C326.911 176.896 326.924 112.359 339.194 49.6697Z" fill="#FFF2D0" stroke="#DBC691" stroke-width="4"/>
<mask id="mask0_1_40" style="mask-type:alpha" maskUnits="userSpaceOnUse" x="327" y="1" width="249" height="283">
<path d="M338.836 49.6697C339.146 48.0856 340.389 46.8486 341.973 46.548L568.659 3.51948C571.343 3.00992 573.737 5.28218 573.368 7.98958L564.276 74.684C558.131 119.768 558.131 165.477 564.276 210.561L573.387 277.397C573.753 280.077 571.408 282.34 568.743 281.879L342.02 242.712C340.409 242.434 339.137 241.189 338.823 239.585C326.553 176.896 326.565 112.359 338.836 49.6697Z" fill="#FFF2D0" stroke="#DBC691" stroke-width="4"/>
</mask>
<g mask="url(#mask0_1_40)">
<path d="M515.634 -5.06352H544.327L533.725 71.5427C527.43 117.024 527.43 163.157 533.725 208.638L544.327 285.245H515.634L505.032 208.638C498.737 163.157 498.737 117.025 505.032 71.5427L515.634 -5.06352Z" fill="#C18A8A"/>
<path d="M564.465 -5.06352H593.159L582.556 71.5427C576.261 117.024 576.261 163.157 582.556 208.638L593.159 285.245H564.465L553.863 208.638C547.568 163.157 547.568 117.025 553.863 71.5427L564.465 -5.06352Z" fill="#C18A8A"/>
<path d="M466.609 -5.06352H495.302L484.7 71.5427C478.405 117.024 478.405 163.157 484.7 208.638L495.302 285.245H466.609L456.007 208.638C449.712 163.157 449.712 117.025 456.007 71.5427L466.609 -5.06352Z" fill="#C18A8A"/>
<path d="M418.005 -5.06352H446.698L436.096 71.5427C429.801 117.024 429.801 163.157 436.096 208.638L446.698 285.245H418.005L407.403 208.638C401.108 163.157 401.108 117.025 407.403 71.5427L418.005 -5.06352Z" fill="#C18A8A"/>
<path d="M369.401 -5.06352H398.094L387.492 71.5427C381.197 117.024 381.197 163.157 387.492 208.638L398.094 285.245H369.401L358.799 208.638C352.504 163.157 352.504 117.025 358.799 71.5427L369.401 -5.06352Z" fill="#C18A8A"/>
<path d="M322.741 -5.06352H351.434L340.832 71.5427C334.537 117.024 334.537 163.157 340.832 208.638L351.434 285.245H322.741L312.139 208.638C305.844 163.157 305.844 117.025 312.139 71.5427L322.741 -5.06352Z" fill="#C18A8A"/>
</g>
<circle cx="69.4615" cy="312.038" r="20.5547" fill="#D9D9D9" stroke="#8C8C8C" stroke-width="6"/>
<circle cx="69.4615" cy="312.038" r="4.30929" fill="#FFB342" stroke="#D3922F" stroke-width="4"/>
<circle cx="135.639" cy="312.038" r="20.5547" fill="#D9D9D9" stroke="#8C8C8C" stroke-width="6"/>
<circle cx="135.639" cy="312.038" r="4.30929" fill="#FFB342" stroke="#D3922F" stroke-width="4"/>
<circle cx="201.816" cy="312.038" r="20.5547" fill="#D9D9D9" stroke="#8C8C8C" stroke-width="6"/>
<circle cx="201.816" cy="312.038" r="4.30929" fill="#FFB342" stroke="#D3922F" stroke-width="4"/>
<circle cx="267.994" cy="312.038" r="20.5547" fill="#D9D9D9" stroke="#8C8C8C" stroke-width="6"/>
<circle cx="267.994" cy="312.038" r="4.30929" fill="#FFB342" stroke="#D3922F" stroke-width="4"/>
<circle cx="334.171" cy="312.038" r="20.5547" fill="#D9D9D9" stroke="#8C8C8C" stroke-width="6"/>
<circle cx="334.171" cy="312.038" r="4.30929" fill="#FFB342" stroke="#D3922F" stroke-width="4"/>
<defs>
<linearGradient id="paint0_linear_1_40" x1="292.272" y1="302.641" x2="292.272" y2="383" gradientUnits="userSpaceOnUse">
<stop offset="0.479167" stop-color="#FFB342"/>
<stop offset="1" stop-color="#D3922F"/>
</linearGradient>
</defs>
</svg>
