<svg width="273" height="249" viewBox="0 0 273 249" fill="none" xmlns="http://www.w3.org/2000/svg">
<path d="M181.587 7.28381L186.417 99.4525L275.568 123.34L189.403 156.416L194.233 248.585L136.15 176.858L49.9848 209.933L100.252 132.528L42.1691 60.8013L131.319 84.689L181.587 7.28381Z" fill="#FFC700"/>
<path d="M201.821 36.389L185.821 111.661L252.465 150.138L175.933 158.182L159.933 233.453L128.634 163.153L52.1016 171.197L109.289 119.705L77.9894 49.4042L144.633 87.881L201.821 36.389Z" fill="#FFC700"/>
<path d="M224.716 28.8082L190.518 98.421L248.755 157.668L169.382 141.444L135.185 211.057L120.327 131.417L40.9549 115.193L111.145 82.1968L96.2881 2.55694L154.525 61.8042L224.716 28.8082Z" fill="#FFC700"/>
<path d="M136.094 0.284134L167.992 91.2194H271.215L187.706 147.42L219.603 238.356L136.094 182.155L52.5842 238.356L84.482 147.42L0.972457 91.2194H104.196L136.094 0.284134Z" fill="#FFC700"/>
</svg>
