<svg width="160" height="149" viewBox="0 0 160 149" fill="none" xmlns="http://www.w3.org/2000/svg">
<rect x="42.035" y="48" width="75.4402" height="88" rx="22" fill="black"/>
<path d="M42.035 114.531C42.035 99.4411 54.2682 87.2079 69.3586 87.2079H90.1516C105.242 87.2079 117.475 99.4411 117.475 114.531V114.531C117.475 126.388 107.863 136 96.0066 136H63.5035C51.6468 136 42.035 126.388 42.035 114.531V114.531Z" fill="black" fill-opacity="0.36"/>
<rect width="26.8482" height="53.2001" rx="13.4241" transform="matrix(0.716121 -0.697977 -0.693464 -0.720491 49.1761 77.4621)" fill="black"/>
<path d="M40.9358 68.9006C45.4868 73.629 52.986 73.7487 57.6857 69.1681L59.8931 67.0166C64.5928 62.4359 64.7133 54.8895 60.1623 50.1611L51.9506 41.6294L32.724 60.3688L40.9358 68.9006Z" fill="black"/>
<rect width="26.8011" height="53.2926" rx="13.4006" transform="matrix(0.965926 -0.258819 -0.258819 -0.965926 21.2052 56.1258)" fill="black"/>
<mask id="mask0_29_69" style="mask-type:alpha" maskUnits="userSpaceOnUse" x="10" y="0" width="38" height="57">
<path d="M21.2052 56.1258L47.0931 49.1892L36.7683 10.6564C34.8528 3.50769 27.5048 -0.73469 20.356 1.18081V1.18081C13.2073 3.09631 8.96489 10.4443 10.8804 17.5931L21.2052 56.1258Z" fill="#FFE5BD"/>
</mask>
<g mask="url(#mask0_29_69)">
<rect width="1.98527" height="11" transform="matrix(0.965926 -0.258819 -0.258819 -0.965926 20.8053 8.61029)" fill="black"/>
<rect width="1.98527" height="11" transform="matrix(0.965926 -0.258819 -0.258819 -0.965926 14.0936 10.4087)" fill="black"/>
<rect width="1.98527" height="11" transform="matrix(0.965926 -0.258819 -0.258819 -0.965926 26.5581 7.06882)" fill="black"/>
</g>
<rect width="5.74973" height="22.9989" transform="matrix(0.707107 -0.707107 -0.707107 -0.707107 48.6401 62.3186)" fill="white"/>
<circle cx="3.28556" cy="3.28556" r="3.28556" transform="matrix(0.707107 -0.707107 -0.707107 -0.707107 52.9051 63.7157)" fill="white"/>
<circle cx="3.28556" cy="3.28556" r="3.28556" transform="matrix(0.707107 -0.707107 -0.707107 -0.707107 49.4202 67.2006)" fill="white"/>
<circle cx="3.28556" cy="3.28556" r="3.28556" transform="matrix(0.707107 -0.707107 -0.707107 -0.707107 35.4808 46.2914)" fill="white"/>
<circle cx="3.28556" cy="3.28556" r="3.28556" transform="matrix(0.707107 -0.707107 -0.707107 -0.707107 31.9959 49.7763)" fill="white"/>
<rect width="5.74973" height="22.9989" transform="matrix(0.965926 -0.258819 -0.258819 -0.965926 27.8287 35.7122)" fill="white"/>
<circle cx="3.28556" cy="3.28556" r="3.28556" transform="matrix(0.965926 -0.258819 -0.258819 -0.965926 30.8238 39.0547)" fill="white"/>
<circle cx="3.28556" cy="3.28556" r="3.28556" transform="matrix(0.965926 -0.258819 -0.258819 -0.965926 26.0634 40.3302)" fill="white"/>
<circle cx="3.28556" cy="3.28556" r="3.28556" transform="matrix(0.965926 -0.258819 -0.258819 -0.965926 24.4461 15.2526)" fill="white"/>
<circle cx="3.28556" cy="3.28556" r="3.28556" transform="matrix(0.965926 -0.258819 -0.258819 -0.965926 19.6857 16.5281)" fill="white"/>
<rect width="26.8482" height="53.2001" rx="13.4241" transform="matrix(-0.71612 -0.697977 0.693464 -0.720491 111.575 77.4621)" fill="black"/>
<path d="M119.816 68.9006C115.265 73.629 107.765 73.7487 103.066 69.1681L100.858 67.0166C96.1585 62.4359 96.038 54.8895 100.589 50.1611L108.801 41.6294L128.027 60.3688L119.816 68.9006Z" fill="black"/>
<rect x="139.546" y="56.1258" width="26.8011" height="53.2926" rx="13.4006" transform="rotate(-165 139.546 56.1258)" fill="black"/>
<mask id="mask1_29_69" style="mask-type:alpha" maskUnits="userSpaceOnUse" x="113" y="0" width="38" height="57">
<path d="M139.546 56.1258L113.658 49.1892L123.983 10.6564C125.899 3.50769 133.247 -0.734692 140.395 1.18081V1.18081C147.544 3.09631 151.786 10.4443 149.871 17.5931L139.546 56.1258Z" fill="#FFE5BD"/>
</mask>
<g mask="url(#mask1_29_69)">
<rect x="139.946" y="8.61029" width="1.98527" height="11" transform="rotate(-165 139.946 8.61029)" fill="black"/>
<rect x="146.658" y="10.4087" width="1.98527" height="11" transform="rotate(-165 146.658 10.4087)" fill="black"/>
<rect x="134.193" y="7.06882" width="1.98527" height="11" transform="rotate(-165 134.193 7.06882)" fill="black"/>
</g>
<rect width="5.74973" height="22.9989" transform="matrix(0.965926 0.258819 0.258819 -0.965926 128.848 35.6556)" fill="white"/>
<circle cx="3.28556" cy="3.28556" r="3.28556" transform="matrix(0.965926 0.258819 0.258819 -0.965926 129.77 40.0478)" fill="white"/>
<circle cx="3.28556" cy="3.28556" r="3.28556" transform="matrix(0.965926 0.258819 0.258819 -0.965926 125.01 38.7723)" fill="white"/>
<circle cx="3.28556" cy="3.28556" r="3.28556" transform="matrix(0.965926 0.258819 0.258819 -0.965926 136.148 16.2458)" fill="white"/>
<circle cx="3.28556" cy="3.28556" r="3.28556" transform="matrix(0.965926 0.258819 0.258819 -0.965926 131.388 14.9702)" fill="white"/>
<rect width="5.74973" height="22.9989" transform="matrix(0.707107 0.707107 0.707107 -0.707107 109.575 59.7245)" fill="white"/>
<circle cx="3.28556" cy="3.28556" r="3.28556" transform="matrix(0.707107 0.707107 0.707107 -0.707107 108.178 63.9895)" fill="white"/>
<circle cx="3.28556" cy="3.28556" r="3.28556" transform="matrix(0.707107 0.707107 0.707107 -0.707107 104.693 60.5046)" fill="white"/>
<circle cx="3.28556" cy="3.28556" r="3.28556" transform="matrix(0.707107 0.707107 0.707107 -0.707107 125.602 46.5652)" fill="white"/>
<circle cx="3.28556" cy="3.28556" r="3.28556" transform="matrix(0.707107 0.707107 0.707107 -0.707107 122.117 43.0803)" fill="white"/>
<rect x="59.4035" y="19.9873" width="41.6466" height="55.4414" rx="20.8233" fill="black"/>
<path d="M99.4799 30.0695C98.7151 31.1067 97.8476 32.0723 96.8915 32.9625L87.5664 28.7468C91.0263 26.9515 94.0441 24.5066 96.2871 21.4646C98.6846 18.213 99.9148 14.6595 100.059 11.1169C103.875 16.9185 103.94 24.0207 99.4799 30.0695Z" fill="black" stroke="black" stroke-width="2"/>
<path d="M61.3207 30.0695C62.0855 31.1067 62.953 32.0723 63.9091 32.9625L73.2342 28.7468C69.7743 26.9515 66.7565 24.5066 64.5135 21.4646C62.116 18.213 60.8857 14.6595 60.7414 11.1169C56.926 16.9185 56.8607 24.0207 61.3207 30.0695Z" fill="black" stroke="black" stroke-width="2"/>
<path d="M59.4035 40.8106C59.4035 29.3103 68.7264 19.9873 80.2268 19.9873V19.9873C91.7271 19.9873 101.05 29.3102 101.05 40.8106V47.4583H59.4035V40.8106Z" fill="black"/>
<path d="M80.2267 19.9873V19.9873C91.7271 19.9873 101.05 29.3102 101.05 40.8106V47.4583H80.2267V19.9873Z" fill="black"/>
<path d="M58.4119 40.4657H102.042V47.4583H58.4119V40.4657Z" fill="black"/>
<ellipse cx="91.1342" cy="48.9567" rx="5.45372" ry="5.49419" fill="#D3D3D3"/>
<ellipse cx="91.1342" cy="47.9578" rx="5.45372" ry="5.49419" fill="white"/>
<ellipse cx="91.1342" cy="49.4562" rx="1.48738" ry="1.49842" fill="#090909"/>
<ellipse cx="69.8151" cy="48.9567" rx="5.45372" ry="5.49419" fill="#D3D3D3"/>
<ellipse cx="69.8151" cy="47.9578" rx="5.45372" ry="5.49419" fill="white"/>
<ellipse cx="69.8151" cy="49.4562" rx="1.48738" ry="1.49842" fill="#090909"/>
<path d="M59.4035 55.9493H101.05V67.0923C101.05 78.5927 91.7271 87.9156 80.2268 87.9156V87.9156C68.7264 87.9156 59.4035 78.5927 59.4035 67.0923V55.9493Z" fill="#FFB443"/>
<rect x="74.2772" y="49.9557" width="11.899" height="18.9799" rx="5.94951" fill="#FFD0D0"/>
<path d="M80.2267 49.9557V49.9557C83.5126 49.9557 86.1763 52.6193 86.1763 55.9052V62.9861C86.1763 66.2719 83.5126 68.9356 80.2267 68.9356V68.9356V49.9557Z" fill="#FFD0D0"/>
<rect x="2" y="89" width="156" height="49" rx="24.5" fill="#FF8A8A" stroke="#AF3838" stroke-width="4"/>
<mask id="mask2_29_69" style="mask-type:alpha" maskUnits="userSpaceOnUse" x="4" y="91" width="152" height="45">
<rect x="4" y="91" width="152" height="45" rx="22.5" fill="#FF8A8A"/>
</mask>
<g mask="url(#mask2_29_69)">
<rect x="88" y="91" width="16" height="45" fill="white"/>
<rect x="53" y="91" width="15" height="45" fill="white"/>
<rect x="17" y="91" width="16" height="45" fill="white"/>
<rect x="124" y="91" width="15" height="45" fill="white"/>
</g>
<rect x="71.2068" y="37.519" width="4.60526" height="18.421" transform="rotate(-90 71.2068 37.519)" fill="white"/>
<circle cx="70.6316" cy="33.2632" r="2.63158" transform="rotate(-90 70.6316 33.2632)" fill="white"/>
<circle cx="70.6316" cy="37.2105" r="2.63158" transform="rotate(-90 70.6316 37.2105)" fill="white"/>
<circle cx="90.3684" cy="33.2632" r="2.63158" transform="rotate(-90 90.3684 33.2632)" fill="white"/>
<circle cx="90.3684" cy="37.2105" r="2.63158" transform="rotate(-90 90.3684 37.2105)" fill="white"/>
<rect x="59.2141" y="33.0865" width="50" height="22" rx="11" transform="rotate(15 59.2141 33.0865)" fill="#7DE0FF" fill-opacity="0.58" stroke="#FF8A8A" stroke-width="4"/>
<rect x="115.483" y="4.68213" width="6" height="59" rx="3" transform="rotate(15 115.483 4.68213)" fill="#FF8A8A"/>
<path d="M82.3244 72.4078C85.0517 73.1385 87.8961 73.325 90.6954 72.9564C93.4946 72.5879 96.1939 71.6716 98.6391 70.2599C101.084 68.8482 103.227 66.9687 104.946 64.7287C106.665 62.4888 107.926 59.9322 108.656 57.205L101.03 55.1615C100.568 56.8872 99.77 58.505 98.6824 59.9223C97.5948 61.3397 96.2386 62.529 94.6914 63.4223C93.1442 64.3156 91.4361 64.8954 89.6648 65.1286C87.8935 65.3618 86.0936 65.2439 84.3679 64.7814L82.3244 72.4078Z" fill="#D9D9D9"/>
<rect x="96.3376" y="29.7908" width="2.63944" height="10.5578" transform="rotate(-150 96.3376 29.7908)" fill="white"/>
<circle cx="94.0603" cy="28.8567" r="1.50825" transform="rotate(-150 94.0603 28.8567)" fill="white"/>
<circle cx="96.0196" cy="29.9879" r="1.50825" transform="rotate(-150 96.0196 29.9879)" fill="white"/>
<circle cx="99.7163" cy="19.0603" r="1.50825" transform="rotate(-150 99.7163 19.0603)" fill="white"/>
<circle cx="101.676" cy="20.1915" r="1.50825" transform="rotate(-150 101.676 20.1915)" fill="white"/>
<rect x="66.6638" y="27.4828" width="2.63944" height="10.5578" transform="rotate(150 66.6638 27.4828)" fill="white"/>
<circle cx="64.7163" cy="28.9879" r="1.50825" transform="rotate(150 64.7163 28.9879)" fill="white"/>
<circle cx="66.6755" cy="27.8567" r="1.50825" transform="rotate(150 66.6755 27.8567)" fill="white"/>
<circle cx="59.0603" cy="19.1915" r="1.50825" transform="rotate(150 59.0603 19.1915)" fill="white"/>
<circle cx="61.0196" cy="18.0603" r="1.50825" transform="rotate(150 61.0196 18.0603)" fill="white"/>
</svg>
