<svg width="32" height="32" viewBox="0 0 32 32" fill="none" xmlns="http://www.w3.org/2000/svg">
<path d="M1.125 6.78185L16.0021 14.3232V32L1.125 24.4586L1.125 6.78185Z" fill="#DEC184"/>
<path d="M1.125 6.78185L16.0021 14.3232V32L1.125 24.4586L1.125 6.78185Z" fill="#DEC184"/>
<path d="M30.879 6.78183L16.002 14.3232V32L30.879 24.4586V6.78183Z" fill="#BBA371"/>
<path d="M30.879 6.78183L16.002 14.3232V32L30.879 24.4586V6.78183Z" fill="#BBA371"/>
<path fill-rule="evenodd" clip-rule="evenodd" d="M16.0021 0L1.125 6.78184L16.0021 14.3232L30.8791 6.78184L16.0021 0Z" fill="#CDAF71"/>
<path d="M25.8401 4.47566L21.1438 2.33485L6.33534 9.3965L11.0316 11.7771L25.8401 4.47566Z" fill="#D4C9B2"/>
<path d="M6.33533 9.39553L11.0316 11.7771L11.0315 19.1089L6.36961 16.7475L6.33533 9.39553Z" fill="#D4C9B2"/>
<path d="M6.33533 9.39553L11.0316 11.7771L11.0315 19.1089L6.36961 16.7475L6.33533 9.39553Z" fill="#D4C9B2"/>
<path d="M26.2514 9.12131L21.5552 11.5029V18.8346L26.2171 16.4733L26.2514 9.12131Z" fill="#C0B69F"/>
<path d="M26.2514 9.12131L21.5552 11.5029V18.8346L26.2171 16.4733L26.2514 9.12131Z" fill="#C0B69F"/>
<path d="M6.74667 4.21091L11.4429 2.0701L26.2514 9.13175L21.5552 11.5123L6.74667 4.21091Z" fill="#D4C9B2"/>
</svg>
