<svg width="64" height="64" viewBox="0 0 64 64" fill="none" xmlns="http://www.w3.org/2000/svg">
<path d="M2.25 13.5637L32.0041 28.6464V64L2.25 48.9173L2.25 13.5637Z" fill="#DEC184"/>
<path d="M2.25 13.5637L32.0041 28.6464V64L2.25 48.9173L2.25 13.5637Z" fill="#DEC184"/>
<path d="M61.7582 13.5637L32.0041 28.6464V64L61.7582 48.9172V13.5637Z" fill="#BBA371"/>
<path d="M61.7582 13.5637L32.0041 28.6464V64L61.7582 48.9172V13.5637Z" fill="#BBA371"/>
<path fill-rule="evenodd" clip-rule="evenodd" d="M32.0041 0L2.25 13.5637L32.0041 28.6464L61.7583 13.5637L32.0041 0Z" fill="#CDAF71"/>
<path d="M51.6802 8.95132L42.2878 4.6697L12.6708 18.793L22.0632 23.5541L51.6802 8.95132Z" fill="#D4C9B2"/>
<path d="M12.6708 18.7911L22.0632 23.5541L22.0632 38.2177L12.7393 33.495L12.6708 18.7911Z" fill="#D4C9B2"/>
<path d="M12.6708 18.7911L22.0632 23.5541L22.0632 38.2177L12.7393 33.495L12.6708 18.7911Z" fill="#D4C9B2"/>
<path d="M52.5029 18.2426L43.1105 23.0057V37.6693L52.4343 32.9466L52.5029 18.2426Z" fill="#C0B69F"/>
<path d="M52.5029 18.2426L43.1105 23.0057V37.6693L52.4343 32.9466L52.5029 18.2426Z" fill="#C0B69F"/>
<path d="M13.4935 8.42182L22.8859 4.1402L52.5029 18.2635L43.1105 23.0247L13.4935 8.42182Z" fill="#D4C9B2"/>
</svg>
