<svg width="16" height="16" viewBox="0 0 16 16" fill="none" xmlns="http://www.w3.org/2000/svg">
<path d="M0.5625 3.39091L8.00103 7.1616V16L0.5625 12.2293L0.5625 3.39091Z" fill="#DEC184"/>
<path d="M0.5625 3.39091L8.00103 7.1616V16L0.5625 12.2293L0.5625 3.39091Z" fill="#DEC184"/>
<path d="M15.4396 3.39091L8.00104 7.1616V16L15.4396 12.2293V3.39091Z" fill="#BBA371"/>
<path d="M15.4396 3.39091L8.00104 7.1616V16L15.4396 12.2293V3.39091Z" fill="#BBA371"/>
<path fill-rule="evenodd" clip-rule="evenodd" d="M8.00103 0L0.5625 3.39092L8.00103 7.1616L15.4396 3.39092L8.00103 0Z" fill="#CDAF71"/>
<path d="M12.9201 2.23783L10.572 1.16742L3.16773 4.69825L5.51584 5.88854L12.9201 2.23783Z" fill="#D4C9B2"/>
<path d="M3.16772 4.69777L5.51584 5.88854L5.51583 9.55443L3.18486 8.37376L3.16772 4.69777Z" fill="#D4C9B2"/>
<path d="M3.16772 4.69777L5.51584 5.88854L5.51583 9.55443L3.18486 8.37376L3.16772 4.69777Z" fill="#D4C9B2"/>
<path d="M13.1258 4.56065L10.7776 5.75143V9.41732L13.1086 8.23665L13.1258 4.56065Z" fill="#C0B69F"/>
<path d="M13.1258 4.56065L10.7776 5.75143V9.41732L13.1086 8.23665L13.1258 4.56065Z" fill="#C0B69F"/>
<path d="M3.3734 2.10545L5.72151 1.03505L13.1258 4.56588L10.7777 5.75616L3.3734 2.10545Z" fill="#D4C9B2"/>
</svg>
