<svg width="512" height="512" viewBox="0 0 512 512" fill="none" xmlns="http://www.w3.org/2000/svg">
<path d="M18 108.509L256.033 229.171V512L18 391.338L18 108.509Z" fill="#DEC184"/>
<path d="M18 108.509L256.033 229.171V512L18 391.338L18 108.509Z" fill="#DEC184"/>
<path d="M494.066 108.509L256.033 229.171V512L494.066 391.338V108.509Z" fill="#BBA371"/>
<path d="M494.066 108.509L256.033 229.171V512L494.066 391.338V108.509Z" fill="#BBA371"/>
<path fill-rule="evenodd" clip-rule="evenodd" d="M256.033 0L18 108.509L256.033 229.171L494.066 108.509L256.033 0Z" fill="#CDAF71"/>
<path d="M413.442 71.6106L338.303 37.3576L101.366 150.344L176.506 188.433L413.442 71.6106Z" fill="#D4C9B2"/>
<path d="M101.366 150.329L176.506 188.433L176.506 305.742L101.915 267.96L101.366 150.329Z" fill="#D4C9B2"/>
<path d="M101.366 150.329L176.506 188.433L176.506 305.742L101.915 267.96L101.366 150.329Z" fill="#D4C9B2"/>
<path d="M420.023 145.941L344.884 184.046V301.354L419.475 263.573L420.023 145.941Z" fill="#C0B69F"/>
<path d="M420.023 145.941L344.884 184.046V301.354L419.475 263.573L420.023 145.941Z" fill="#C0B69F"/>
<path d="M107.948 67.3746L183.087 33.1216L420.023 146.108L344.884 184.197L107.948 67.3746Z" fill="#D4C9B2"/>
</svg>
