<svg width="783" height="197" viewBox="0 0 783 197" fill="none" xmlns="http://www.w3.org/2000/svg">
<path d="M202.935 144V52.3636H241.147C248.008 52.3636 253.75 53.3331 258.374 55.272C263.027 57.2109 266.517 59.9254 268.844 63.4155C271.2 66.9055 272.379 70.9474 272.379 75.5412C272.379 79.0312 271.648 82.1484 270.186 84.8928C268.724 87.6072 266.711 89.8594 264.146 91.6491C261.58 93.4389 258.612 94.6918 255.241 95.4077V96.3026C258.94 96.4815 262.356 97.4808 265.488 99.3004C268.65 101.12 271.185 103.656 273.094 106.907C275.004 110.129 275.958 113.947 275.958 118.362C275.958 123.283 274.705 127.683 272.2 131.561C269.694 135.409 266.07 138.452 261.327 140.689C256.584 142.896 250.827 144 244.055 144H202.935ZM225.084 126.147H238.776C243.578 126.147 247.113 125.237 249.38 123.418C251.677 121.598 252.825 119.062 252.825 115.811C252.825 113.455 252.273 111.426 251.17 109.726C250.066 107.996 248.5 106.668 246.472 105.744C244.443 104.789 242.012 104.312 239.178 104.312H225.084V126.147ZM225.084 90.0384H237.344C239.76 90.0384 241.908 89.6357 243.787 88.8303C245.666 88.0249 247.128 86.8615 248.172 85.3402C249.246 83.8189 249.783 81.9844 249.783 79.8366C249.783 76.7642 248.694 74.348 246.516 72.5881C244.339 70.8281 241.401 69.9482 237.702 69.9482H225.084V90.0384ZM373.098 98.1818C373.098 108.264 371.159 116.81 367.281 123.82C363.403 130.83 358.153 136.155 351.531 139.794C344.939 143.433 337.541 145.253 329.338 145.253C321.105 145.253 313.692 143.418 307.1 139.749C300.508 136.08 295.273 130.756 291.395 123.776C287.547 116.766 285.623 108.234 285.623 98.1818C285.623 88.0994 287.547 79.5533 291.395 72.5433C295.273 65.5334 300.508 60.2088 307.1 56.5696C313.692 52.9304 321.105 51.1108 329.338 51.1108C337.541 51.1108 344.939 52.9304 351.531 56.5696C358.153 60.2088 363.403 65.5334 367.281 72.5433C371.159 79.5533 373.098 88.0994 373.098 98.1818ZM350.457 98.1818C350.457 92.2159 349.607 87.1747 347.907 83.0582C346.237 78.9418 343.82 75.8246 340.658 73.7067C337.526 71.5888 333.753 70.5298 329.338 70.5298C324.953 70.5298 321.18 71.5888 318.018 73.7067C314.856 75.8246 312.425 78.9418 310.724 83.0582C309.054 87.1747 308.219 92.2159 308.219 98.1818C308.219 104.148 309.054 109.189 310.724 113.305C312.425 117.422 314.856 120.539 318.018 122.657C321.18 124.775 324.953 125.834 329.338 125.834C333.753 125.834 337.526 124.775 340.658 122.657C343.82 120.539 346.237 117.422 347.907 113.305C349.607 109.189 350.457 104.148 350.457 98.1818ZM403.278 52.3636L420.012 81.3132H420.728L437.642 52.3636H462.43L434.778 98.1818L463.325 144H437.91L420.728 114.737H420.012L402.831 144H377.595L406.007 98.1818L378.311 52.3636H403.278ZM555.207 98.1818C555.207 108.264 553.268 116.81 549.391 123.82C545.513 130.83 540.263 136.155 533.641 139.794C527.048 143.433 519.651 145.253 511.447 145.253C503.214 145.253 495.802 143.418 489.21 139.749C482.617 136.08 477.382 130.756 473.504 123.776C469.656 116.766 467.732 108.234 467.732 98.1818C467.732 88.0994 469.656 79.5533 473.504 72.5433C477.382 65.5334 482.617 60.2088 489.21 56.5696C495.802 52.9304 503.214 51.1108 511.447 51.1108C519.651 51.1108 527.048 52.9304 533.641 56.5696C540.263 60.2088 545.513 65.5334 549.391 72.5433C553.268 79.5533 555.207 88.0994 555.207 98.1818ZM532.567 98.1818C532.567 92.2159 531.717 87.1747 530.016 83.0582C528.346 78.9418 525.93 75.8246 522.768 73.7067C519.636 71.5888 515.862 70.5298 511.447 70.5298C507.063 70.5298 503.289 71.5888 500.127 73.7067C496.965 75.8246 494.534 78.9418 492.834 83.0582C491.163 87.1747 490.328 92.2159 490.328 98.1818C490.328 104.148 491.163 109.189 492.834 113.305C494.534 117.422 496.965 120.539 500.127 122.657C503.289 124.775 507.063 125.834 511.447 125.834C515.862 125.834 519.636 124.775 522.768 122.657C525.93 120.539 528.346 117.422 530.016 113.305C531.717 109.189 532.567 104.148 532.567 98.1818ZM623.577 52.3636H645.68V111.471C645.68 118.302 644.055 124.253 640.803 129.324C637.552 134.365 633.018 138.273 627.201 141.047C621.384 143.791 614.628 145.163 606.932 145.163C599.146 145.163 592.345 143.791 586.528 141.047C580.712 138.273 576.192 134.365 572.971 129.324C569.749 124.253 568.138 118.302 568.138 111.471V52.3636H590.287V109.547C590.287 112.709 590.973 115.528 592.345 118.004C593.747 120.479 595.701 122.418 598.207 123.82C600.712 125.222 603.621 125.923 606.932 125.923C610.243 125.923 613.136 125.222 615.612 123.82C618.118 122.418 620.072 120.479 621.474 118.004C622.876 115.528 623.577 112.709 623.577 109.547V52.3636ZM656.564 70.3509V52.3636H734.017V70.3509H706.231V144H684.395V70.3509H656.564Z" fill="black"/>
<path d="M0 41.7468L91.5784 88.1691L91.5784 196.982L0 150.559L0 41.7468Z" fill="#DEC184"/>
<path d="M0 41.7468L91.5784 88.1691L91.5784 196.982L0 150.559L0 41.7468Z" fill="#DEC184"/>
<path d="M183.157 41.7468L91.5784 88.169L91.5784 196.982L183.157 150.559V41.7468Z" fill="#BBA371"/>
<path d="M183.157 41.7468L91.5784 88.169L91.5784 196.982L183.157 150.559V41.7468Z" fill="#BBA371"/>
<path fill-rule="evenodd" clip-rule="evenodd" d="M91.5785 0L6.10352e-05 41.7468L91.5785 88.1691L183.157 41.7468L91.5785 0Z" fill="#CDAF71"/>
<path d="M152.138 27.5507L123.23 14.3726L32.0735 57.8419L60.9819 72.4959L152.138 27.5507Z" fill="#D4C9B2"/>
<path d="M32.0735 57.8359L60.9819 72.4959L60.9819 117.628L32.2845 103.092L32.0735 57.8359Z" fill="#D4C9B2"/>
<path d="M32.0735 57.8359L60.9819 72.4959L60.9819 117.628L32.2845 103.092L32.0735 57.8359Z" fill="#D4C9B2"/>
<path d="M154.67 56.1479L125.762 70.8079V115.94L154.459 101.404L154.67 56.1479Z" fill="#C0B69F"/>
<path d="M154.67 56.1479L125.762 70.8079V115.94L154.459 101.404L154.67 56.1479Z" fill="#C0B69F"/>
<path d="M34.6056 25.921L63.514 12.7429L154.67 56.2122L125.762 70.8662L34.6056 25.921Z" fill="#D4C9B2"/>
</svg>
