<svg width="48" height="48" viewBox="0 0 48 48" fill="none" xmlns="http://www.w3.org/2000/svg">
<path d="M1.6875 10.1728L24.0031 21.4848L24.0031 48L1.6875 36.6879L1.6875 10.1728Z" fill="#DEC184"/>
<path d="M1.6875 10.1728L24.0031 21.4848L24.0031 48L1.6875 36.6879L1.6875 10.1728Z" fill="#DEC184"/>
<path d="M46.3186 10.1727L24.003 21.4848L24.003 48L46.3186 36.6879V10.1727Z" fill="#BBA371"/>
<path d="M46.3186 10.1727L24.003 21.4848L24.003 48L46.3186 36.6879V10.1727Z" fill="#BBA371"/>
<path fill-rule="evenodd" clip-rule="evenodd" d="M24.0031 0L1.6875 10.1728L24.0031 21.4848L46.3187 10.1728L24.0031 0Z" fill="#CDAF71"/>
<path d="M38.7602 6.71349L31.7158 3.50227L9.50307 14.0948L16.5474 17.6656L38.7602 6.71349Z" fill="#D4C9B2"/>
<path d="M9.50305 14.0933L16.5474 17.6656L16.5474 28.6633L9.55447 25.1213L9.50305 14.0933Z" fill="#D4C9B2"/>
<path d="M9.50305 14.0933L16.5474 17.6656L16.5474 28.6633L9.55447 25.1213L9.50305 14.0933Z" fill="#D4C9B2"/>
<path d="M39.3771 13.682L32.3328 17.2543V28.252L39.3257 24.7099L39.3771 13.682Z" fill="#C0B69F"/>
<path d="M39.3771 13.682L32.3328 17.2543V28.252L39.3257 24.7099L39.3771 13.682Z" fill="#C0B69F"/>
<path d="M10.1201 6.31636L17.1644 3.10515L39.3772 13.6976L32.3328 17.2685L10.1201 6.31636Z" fill="#D4C9B2"/>
</svg>
