<svg width="128" height="128" viewBox="0 0 128 128" fill="none" xmlns="http://www.w3.org/2000/svg">
<path d="M4.5 27.1273L64.0083 57.2928V128L4.5 97.8345L4.5 27.1273Z" fill="#DEC184"/>
<path d="M4.5 27.1273L64.0083 57.2928V128L4.5 97.8345L4.5 27.1273Z" fill="#DEC184"/>
<path d="M123.516 27.1273L64.0081 57.2928V128L123.516 97.8345V27.1273Z" fill="#BBA371"/>
<path d="M123.516 27.1273L64.0081 57.2928V128L123.516 97.8345V27.1273Z" fill="#BBA371"/>
<path fill-rule="evenodd" clip-rule="evenodd" d="M64.0083 0L4.5 27.1274L64.0083 57.2928L123.517 27.1274L64.0083 0Z" fill="#CDAF71"/>
<path d="M103.36 17.9026L84.5756 9.33939L25.3416 37.586L44.1265 47.1083L103.36 17.9026Z" fill="#D4C9B2"/>
<path d="M25.3416 37.5821L44.1265 47.1083L44.1264 76.4355L25.4787 66.9901L25.3416 37.5821Z" fill="#D4C9B2"/>
<path d="M25.3416 37.5821L44.1265 47.1083L44.1264 76.4355L25.4787 66.9901L25.3416 37.5821Z" fill="#D4C9B2"/>
<path d="M105.006 36.4852L86.2209 46.0114V75.3386L104.869 65.8932L105.006 36.4852Z" fill="#C0B69F"/>
<path d="M105.006 36.4852L86.2209 46.0114V75.3386L104.869 65.8932L105.006 36.4852Z" fill="#C0B69F"/>
<path d="M26.9869 16.8436L45.7718 8.2804L105.006 36.527L86.221 46.0493L26.9869 16.8436Z" fill="#D4C9B2"/>
</svg>
