<svg width="136" height="141" viewBox="0 0 136 141" fill="none" xmlns="http://www.w3.org/2000/svg">
<rect x="29.2505" y="40" width="76" height="101" rx="22" fill="#9D6D25"/>
<path d="M29.2505 113C29.2505 97.536 41.7865 85 57.2505 85H77.2505C92.7144 85 105.25 97.536 105.25 113V119C105.25 131.15 95.4007 141 83.2505 141H51.2505C39.1002 141 29.2505 131.15 29.2505 119V113Z" fill="#B67F2C" fill-opacity="0.36"/>
<rect x="46.7478" y="11.9873" width="41.9557" height="55.4414" rx="20.9778" fill="#FFE5BD"/>
<circle cx="78.714" cy="40.9567" r="5.49419" fill="#D3D3D3"/>
<circle cx="78.714" cy="39.9578" r="5.49419" fill="white"/>
<circle cx="78.714" cy="41.4562" r="1.49842" fill="#090909"/>
<circle cx="57.2367" cy="40.9567" r="5.49419" fill="#D3D3D3"/>
<circle cx="57.2367" cy="39.9578" r="5.49419" fill="white"/>
<circle cx="57.2367" cy="41.4562" r="1.49842" fill="#090909"/>
<path d="M87.1297 22.0666C86.3578 23.1058 85.482 24.0732 84.5165 24.965L75.1165 20.7467C78.5996 18.9522 81.6382 16.5085 83.8971 13.4674C86.3169 10.2097 87.5569 6.64818 87.6986 3.0976C91.5563 8.9023 91.6273 16.0118 87.1297 22.0666Z" fill="white" stroke="#DFDFDF" stroke-width="2"/>
<path d="M48.6712 22.0666C49.4431 23.1058 50.319 24.0732 51.2844 24.965L60.6844 20.7467C57.2013 18.9522 54.1627 16.5085 51.9038 13.4674C49.484 10.2097 48.244 6.64818 48.1023 3.0976C44.2446 8.9023 44.1737 16.0118 48.6712 22.0666Z" fill="white" stroke="#DFDFDF" stroke-width="2"/>
<path d="M46.7478 32.9652C46.7478 21.3795 56.1399 11.9873 67.7257 11.9873C79.3114 11.9873 88.7035 21.3794 88.7035 32.9652V39.4583H46.7478V32.9652Z" fill="#D3922F"/>
<path d="M67.7257 11.9873C79.3114 11.9873 88.7035 21.3794 88.7035 32.9652V39.4583H67.7257V11.9873Z" fill="#C08429"/>
<path d="M45.7489 32.4657H89.7024V39.4583H45.7489V32.4657Z" fill="#D9D9D9"/>
<path d="M46.7478 47.9493H88.7035V58.9377C88.7035 70.5235 79.3114 79.9156 67.7256 79.9156C56.1399 79.9156 46.7478 70.5235 46.7478 58.9377V47.9493Z" fill="#FFB443"/>
<rect x="61.732" y="41.9557" width="11.9873" height="18.9799" rx="5.99367" fill="#FFD0D0"/>
<rect x="25.9055" y="41.1514" width="27" height="53.2926" rx="13.5" transform="rotate(29.0846 25.9055 41.1514)" fill="#F9DEB5"/>
<path d="M20.1293 51.5358C23.3194 45.8007 30.5548 43.7375 36.29 46.9276L39.1165 48.4998C44.8516 51.69 46.9148 58.9254 43.7247 64.6605L37.9484 75.045L14.353 61.9203L20.1293 51.5358Z" fill="#C08429"/>
<rect x="4.25046" y="69" width="27" height="53.2926" rx="13.5" fill="#FFE5BD"/>
<mask id="mask0_26_186" style="mask-type:alpha" maskUnits="userSpaceOnUse" x="4" y="69" width="28" height="54">
<path d="M4.25046 69H31.2505V108.793C31.2505 116.248 25.2063 122.293 17.7505 122.293C10.2946 122.293 4.25046 116.248 4.25046 108.793V69Z" fill="#FFE5BD"/>
</mask>
<g mask="url(#mask0_26_186)">
<rect x="16.2505" y="115" width="2" height="11" fill="#E6CEAA"/>
<rect x="9.25046" y="115" width="2" height="11" fill="#E6CEAA"/>
<rect x="22.2505" y="115" width="2" height="11" fill="#E6CEAA"/>
</g>
<rect width="27" height="53.2926" rx="13.5" transform="matrix(-0.873903 0.4861 0.4861 0.873903 109.846 41.1514)" fill="#F9DEB5"/>
<path d="M115.622 51.5358C112.432 45.8007 105.197 43.7375 99.4614 46.9276L96.6349 48.4998C90.8997 51.69 88.8366 58.9254 92.0267 64.6605L97.803 75.045L121.398 61.9203L115.622 51.5358Z" fill="#C08429"/>
<rect width="27" height="53.2926" rx="13.5" transform="matrix(-1 0 0 1 131.501 69)" fill="#FFE5BD"/>
<mask id="mask1_26_186" style="mask-type:alpha" maskUnits="userSpaceOnUse" x="104" y="69" width="28" height="54">
<path d="M131.501 69H104.501V108.793C104.501 116.248 110.545 122.293 118.001 122.293C125.457 122.293 131.501 116.248 131.501 108.793V69Z" fill="#FFE5BD"/>
</mask>
<g mask="url(#mask1_26_186)">
<rect width="2" height="11" transform="matrix(-1 0 0 1 119.501 115)" fill="#E6CEAA"/>
<rect width="2" height="11" transform="matrix(-1 0 0 1 126.501 115)" fill="#E6CEAA"/>
<rect width="2" height="11" transform="matrix(-1 0 0 1 113.501 115)" fill="#E6CEAA"/>
</g>
</svg>
