<svg width="121" height="275" viewBox="0 0 121 275" fill="none" xmlns="http://www.w3.org/2000/svg">
<path d="M118 60.6015V60.6016V60.6016V60.6017V60.6018V60.6019V60.6019V60.602V60.6021V60.6022V60.6023V60.6023V60.6024V60.6025V60.6026V60.6026V60.6027V60.6028V60.6029V60.603V60.603V60.6031V60.6032V60.6033V60.6033V60.6034V60.6035V60.6036V60.6036V60.6037V60.6038V60.6039V60.604V60.604V60.6041V60.6042V60.6043V60.6043V60.6044V60.6045V60.6046V60.6047V60.6047V60.6048V60.6049V60.605V60.605V60.6051V60.6052V60.6053V60.6054V60.6054V60.6055V60.6056V60.6057V60.6057V60.6058V60.6059V60.606V60.606V60.6061V60.6062V60.6063V60.6064V60.6064V60.6065V60.6066V60.6067V60.6067V60.6068V60.6069V60.607V60.6071V60.6071V60.6072V60.6073V60.6074V60.6074V60.6075V60.6076V60.6077V60.6077V60.6078V60.6079V60.608V60.6081V60.6081V60.6082V60.6083V60.6084V60.6084V60.6085V60.6086V60.6087V60.6087V60.6088V60.6089V60.609V60.6091V60.6091V60.6092V60.6093V60.6094V60.6094V60.6095V60.6096V60.6097V60.6098V60.6098V60.6099V60.61V60.6101V60.6101V60.6102V60.6103V60.6104V60.6105V60.6105V60.6106V60.6107V60.6108V60.6108V60.6109V60.611V60.6111V60.6111V60.6112V60.6113V60.6114V60.6115V60.6115V60.6116V60.6117V60.6118V60.6118V60.6119V60.612V60.6121V60.6121V60.6122V60.6123V60.6124V60.6125V60.6125V60.6126V60.6127V60.6128V60.6128V60.6129V60.613V60.6131V60.6132V60.6132V60.6133V60.6134V60.6135V60.6135V60.6136V60.6137V60.6138V60.6138V60.6139V60.614V60.6141V60.6142V60.6142V60.6143V60.6144V60.6145V60.6145V60.6146V60.6147V60.6148V60.6149V60.6149V60.615V60.6151V60.6152V60.6152V60.6153V60.6154V60.6155V60.6155V60.6156V60.6157V60.6158V60.6159V60.6159V60.616V60.6161V60.6162V60.6162V60.6163V60.6164V60.6165V60.6166V60.6166V60.6167V60.6168V60.6169V60.6169V60.617V60.6171V60.6172V60.6172V60.6173V60.6174V60.6175V60.6176V60.6176V60.6177V60.6178V60.6179V60.6179V60.618V60.6181V60.6182V60.6182V60.6183V60.6184V60.6185V60.6186V60.6186V60.6187V60.6188V60.6189V60.6189V60.619V60.6191V60.6192V60.6193V60.6193V60.6194V60.6195V60.6196V60.6196V60.6197V60.6198V60.6199V60.6199V60.62V60.6201V60.6202V60.6203V60.6203V60.6204V60.6205V60.6206V60.6206V60.6207V60.6208V60.6209V60.621V60.621V60.6211V60.6212V60.6213V60.6213V60.6214V60.6215V60.6216V60.6216V60.6217V60.6218V60.6219V60.622V60.622V60.6221V60.6222V60.6223V60.6223V60.6224V60.6225V60.6226V60.6227V60.6227V60.6228V60.6229V60.623V60.623V60.6231V60.6232V60.6233V60.6233V60.6234V60.6235V60.6236V60.6237V60.6237V60.6238V60.6239V60.624V60.624V60.6241V60.6242V60.6243V60.6243V60.6244V60.6245V60.6246V60.6247V60.6247V60.6248V60.6249V60.625V60.625V60.6251V60.6252V60.6253V60.6254V60.6254V60.6255V60.6256V60.6257V60.6257V60.6258V60.6259V60.626V60.626V60.6261V60.6262V60.6263V60.6264V60.6264V60.6265V60.6266V60.6267V60.6267V60.6268V60.6269V60.627V60.6271V60.6271V60.6272V60.6273V60.6274V60.6274V60.6275V60.6276V60.6277V60.6277V60.6278V60.6279V60.628V60.6281V60.6281V60.6282V60.6283V60.6284V60.6284V60.6285V60.6286V60.6287V60.6287V60.6288V60.6289V60.629V60.6291V60.6291V60.6292V60.6293V60.6294V60.6294V60.6295V60.6296V60.6297V60.6298V60.6298V60.6299V60.63V60.6301V60.6301V60.6302V60.6303V60.6304V60.6304V60.6305V60.6306V60.6307V60.6308V60.6308V60.6309V60.631V60.6311V60.6311V60.6312V60.6313V60.6314V60.6315V60.6315V60.6316V60.6317V60.6318V60.6318V60.6319V60.632V60.6321V60.6321V60.6322V60.6323V60.6324V60.6325V60.6325V60.6326V60.6327V60.6328V60.6328V60.6329V60.633V60.6331V60.6332V60.6332V60.6333V60.6334V60.6335V60.6335V60.6336V60.6337V60.6338V60.6338V60.6339V60.634V60.6341V60.6342V60.6342V60.6343V60.6344V60.6345V60.6345V60.6346V60.6347V60.6348V60.6349V60.6349V60.635V60.6351V60.6352V60.6352V60.6353V60.6354V60.6355V60.6355V60.6356V60.6357V60.6358V60.6359V60.6359V60.636V60.6361V60.6362V60.6362V60.6363V60.6364V60.6365V60.6366V60.6366V60.6367V60.6368V60.6369V60.6369V60.637V60.6371V60.6372V60.6372V60.6373V60.6374V60.6375V60.6376V60.6376V60.6377V60.6378V60.6379V60.6379V60.638V60.6381V60.6382V60.6383V60.6383V60.6384V60.6385V60.6386V60.6386V60.6387V60.6388V60.6389V60.639V60.639V60.6391V60.6392V60.6393V60.6393V60.6394V60.6395V60.6396V60.6396V60.6397V60.6398V60.6399V60.64V60.64V60.6401V60.6402V60.6403V60.6403V60.6404V60.6405V60.6406V60.6407V60.6407V60.6408V60.6409V60.641V60.641V272H3V60.641V60.641V60.6409V60.6408V60.6407V60.6407V60.6406V60.6405V60.6404V60.6403V60.6403V60.6402V60.6401V60.64V60.64V60.6399V60.6398V60.6397V60.6396V60.6396V60.6395V60.6394V60.6393V60.6393V60.6392V60.6391V60.639V60.639V60.6389V60.6388V60.6387V60.6386V60.6386V60.6385V60.6384V60.6383V60.6383V60.6382V60.6381V60.638V60.6379V60.6379V60.6378V60.6377V60.6376V60.6376V60.6375V60.6374V60.6373V60.6372V60.6372V60.6371V60.637V60.6369V60.6369V60.6368V60.6367V60.6366V60.6366V60.6365V60.6364V60.6363V60.6362V60.6362V60.6361V60.636V60.6359V60.6359V60.6358V60.6357V60.6356V60.6355V60.6355V60.6354V60.6353V60.6352V60.6352V60.6351V60.635V60.6349V60.6349V60.6348V60.6347V60.6346V60.6345V60.6345V60.6344V60.6343V60.6342V60.6342V60.6341V60.634V60.6339V60.6338V60.6338V60.6337V60.6336V60.6335V60.6335V60.6334V60.6333V60.6332V60.6332V60.6331V60.633V60.6329V60.6328V60.6328V60.6327V60.6326V60.6325V60.6325V60.6324V60.6323V60.6322V60.6321V60.6321V60.632V60.6319V60.6318V60.6318V60.6317V60.6316V60.6315V60.6315V60.6314V60.6313V60.6312V60.6311V60.6311V60.631V60.6309V60.6308V60.6308V60.6307V60.6306V60.6305V60.6304V60.6304V60.6303V60.6302V60.6301V60.6301V60.63V60.6299V60.6298V60.6298V60.6297V60.6296V60.6295V60.6294V60.6294V60.6293V60.6292V60.6291V60.6291V60.629V60.6289V60.6288V60.6287V60.6287V60.6286V60.6285V60.6284V60.6284V60.6283V60.6282V60.6281V60.6281V60.628V60.6279V60.6278V60.6277V60.6277V60.6276V60.6275V60.6274V60.6274V60.6273V60.6272V60.6271V60.6271V60.627V60.6269V60.6268V60.6267V60.6267V60.6266V60.6265V60.6264V60.6264V60.6263V60.6262V60.6261V60.626V60.626V60.6259V60.6258V60.6257V60.6257V60.6256V60.6255V60.6254V60.6254V60.6253V60.6252V60.6251V60.625V60.625V60.6249V60.6248V60.6247V60.6247V60.6246V60.6245V60.6244V60.6243V60.6243V60.6242V60.6241V60.624V60.624V60.6239V60.6238V60.6237V60.6237V60.6236V60.6235V60.6234V60.6233V60.6233V60.6232V60.6231V60.623V60.623V60.6229V60.6228V60.6227V60.6227V60.6226V60.6225V60.6224V60.6223V60.6223V60.6222V60.6221V60.622V60.622V60.6219V60.6218V60.6217V60.6216V60.6216V60.6215V60.6214V60.6213V60.6213V60.6212V60.6211V60.621V60.621V60.6209V60.6208V60.6207V60.6206V60.6206V60.6205V60.6204V60.6203V60.6203V60.6202V60.6201V60.62V60.6199V60.6199V60.6198V60.6197V60.6196V60.6196V60.6195V60.6194V60.6193V60.6193V60.6192V60.6191V60.619V60.6189V60.6189V60.6188V60.6187V60.6186V60.6186V60.6185V60.6184V60.6183V60.6182V60.6182V60.6181V60.618V60.6179V60.6179V60.6178V60.6177V60.6176V60.6176V60.6175V60.6174V60.6173V60.6172V60.6172V60.6171V60.617V60.6169V60.6169V60.6168V60.6167V60.6166V60.6166V60.6165V60.6164V60.6163V60.6162V60.6162V60.6161V60.616V60.6159V60.6159V60.6158V60.6157V60.6156V60.6155V60.6155V60.6154V60.6153V60.6152V60.6152V60.6151V60.615V60.6149V60.6149V60.6148V60.6147V60.6146V60.6145V60.6145V60.6144V60.6143V60.6142V60.6142V60.6141V60.614V60.6139V60.6138V60.6138V60.6137V60.6136V60.6135V60.6135V60.6134V60.6133V60.6132V60.6132V60.6131V60.613V60.6129V60.6128V60.6128V60.6127V60.6126V60.6125V60.6125V60.6124V60.6123V60.6122V60.6121V60.6121V60.612V60.6119V60.6118V60.6118V60.6117V60.6116V60.6115V60.6115V60.6114V60.6113V60.6112V60.6111V60.6111V60.611V60.6109V60.6108V60.6108V60.6107V60.6106V60.6105V60.6105V60.6104V60.6103V60.6102V60.6101V60.6101V60.61V60.6099V60.6098V60.6098V60.6097V60.6096V60.6095V60.6094V60.6094V60.6093V60.6092V60.6091V60.6091V60.609V60.6089V60.6088V60.6087V60.6087V60.6086V60.6085V60.6084V60.6084V60.6083V60.6082V60.6081V60.6081V60.608V60.6079V60.6078V60.6077V60.6077V60.6076V60.6075V60.6074V60.6074V60.6073V60.6072V60.6071V60.6071V60.607V60.6069V60.6068V60.6067V60.6067V60.6066V60.6065V60.6064V60.6064V60.6063V60.6062V60.6061V60.606V60.606V60.6059V60.6058V60.6057V60.6057V60.6056V60.6055V60.6054V60.6054V60.6053V60.6052V60.6051V60.605V60.605V60.6049V60.6048V60.6047V60.6047V60.6046V60.6045V60.6044V60.6043V60.6043V60.6042V60.6041V60.604V60.604V60.6039V60.6038V60.6037V60.6036V60.6036V60.6035V60.6034V60.6033V60.6033V60.6032V60.6031V60.603V60.603V60.6029V60.6028V60.6027V60.6026V60.6026V60.6025V60.6024V60.6023V60.6023V60.6022V60.6021V60.602V60.6019V60.6019V60.6018V60.6017V60.6016V60.6016V60.6015C3 28.7843 28.7484 3 60.5 3C92.2516 3 118 28.7843 118 60.6015Z" fill="#47D1EF" stroke="#30C3E3" stroke-width="6"/>
</svg>
