<?xml version="1.0" encoding="utf-8"?>
<!-- Generator: Adobe Illustrator 27.7.0, SVG Export Plug-In . SVG Version: 6.00 Build 0)  -->
<svg version="1.1" id="Layer_1" xmlns="http://www.w3.org/2000/svg" xmlns:xlink="http://www.w3.org/1999/xlink" x="0px" y="0px"
	 viewBox="0 0 320 320" style="enable-background:new 0 0 320 320;" xml:space="preserve">
<style type="text/css">
	.st0{fill:#155033;}
	.st1{fill:#FFB800;}
</style>
<g id="Group_838" transform="translate(24673 -6623)">
	<g id="mcd_logo" transform="translate(-24673 6623)">
		<path id="Path_1" class="st0" d="M27.8,320c0,0-27.8,0-27.8-27.8V27.8C0,27.8,0,0,27.8,0h264.4c0,0,27.8,0,27.8,27.8v264.4
			c0,0,0,27.8-27.8,27.8L27.8,320L27.8,320z"/>
	</g>
</g>
<g id="Group_3" transform="translate(53.677 65.835)">
	<path id="Path_2" class="st1" d="M152.9,0.8c-18.8,0-35.6,25-46.6,64c-11-39-27.8-64-46.6-64c-33,0-59.6,83.3-59.6,185.8h26.6
		C26.7,91.4,41.6,14.1,60,14.1s33.3,71.3,33.3,159.2h26.6c0-87.9,14.9-159.2,33.3-159.2s33.3,77.3,33.3,172.5h26.2
		C212.5,83.9,185.9,0.8,152.9,0.8z"/>
</g>
<g>
	<path class="st1" d="M272.4,244.8c0-3.9,3-6.9,6.7-6.9c3.8,0,6.7,3.1,6.7,6.9c0,3.9-2.9,7-6.7,7
		C275.4,251.9,272.4,248.8,272.4,244.8z M284.3,244.9c0-3-2.2-5.4-5.2-5.4c-3,0-5.2,2.4-5.2,5.3c0,3,2.3,5.4,5.3,5.4
		C282.2,250.2,284.3,247.9,284.3,244.9z M276.5,241.6c0.6-0.1,1.5-0.2,2.6-0.2c1.3,0,1.9,0.2,2.3,0.5c0.4,0.3,0.7,0.8,0.7,1.5
		c0,0.7-0.6,1.3-1.4,1.6v0.1c0.7,0.2,1,0.8,1.2,1.7c0.2,1,0.4,1.4,0.5,1.6h-1.7c-0.2-0.2-0.3-0.9-0.5-1.6c-0.1-0.7-0.5-1-1.4-1h-0.8
		v2.7h-1.6V241.6z M278.9,244.6c0.8,0,1.5-0.3,1.5-0.9c0-0.6-0.5-1-1.4-1c-0.4,0-0.7,0-0.9,0v1.9H278.9z"/>
</g>
</svg>
