<?xml version="1.0" encoding="utf-8"?>
<!-- Generator: Adobe Illustrator 27.5.0, SVG Export Plug-In . SVG Version: 6.00 Build 0)  -->
<svg version="1.1" id="Layer_1" xmlns="http://www.w3.org/2000/svg" xmlns:xlink="http://www.w3.org/1999/xlink" x="0px" y="0px"
	 viewBox="0 0 600 100" style="enable-background:new 0 0 600 100;" xml:space="preserve"  preserveAspectRatio="none">
<style type="text/css">
	.st0{fill:#FFFFFF;}
</style>
<path class="st0" d="M66.2,29.3c28.1,11.8,34.3,13.4,39.2,14.5c5.5,1.1,18.9,3.8,36.1,3.1c9.8-0.4,19.9-2.6,39.8-7.1
	c23.2-5.1,26.6-7,39.5-8.2c7-0.7,16.8-1.6,28.6-0.4c15,1.7,24.8,6,38.5,12.3c8.2,3.7,15.5,8.1,30,16.8c11.8,7,15.2,9.4,27.1,16
	c12.7,7.1,18.4,9.7,20.7,10.7c8.7,3.8,15.8,7,27.3,9.5c14.9,3.4,27.4,3.4,30,3.4c5.7,0,16.5,0,27.9-2.8c10-2.4,17-6.2,29.4-15.6
	c10.4-7.8,15.5-12.9,26.8-23.1c0,0,12.2-11.3,34.9-30.3c2.6-2.2,9.6-8,20.4-14.7c9.6-6,16.6-9.3,26.1-11.5c4.7-1.1,9-1.7,11.9-1.9H0
	c0,0,6.5,1.4,12.8,4.5C18.3,7.2,45.1,20.3,66.2,29.3z"/>
</svg>
