<svg width="301" height="301" viewBox="0 0 301 301" fill="none" xmlns="http://www.w3.org/2000/svg">
<rect x="4.08246" y="4.75372" width="292" height="292" rx="12" fill="#A5863D" stroke="#957835" stroke-width="8"/>
<path d="M46.1157 233.039C47.5503 229.09 51.3026 226.461 55.504 226.461H71.8026C75.726 226.461 79.2649 228.819 80.7759 232.44L82.1072 235.63C83.2383 238.34 82.1708 241.469 79.619 242.922V242.922C78.7421 243.422 77.7502 243.684 76.741 243.684H50.4188C49.177 243.684 47.9688 243.281 46.9766 242.534V242.534C44.9654 241.02 44.1787 238.371 45.0382 236.005L46.1157 233.039Z" fill="#957835"/>
<path d="M76.227 215.816C77.6616 211.867 81.4139 209.238 85.6153 209.238H101.914C105.837 209.238 109.376 211.596 110.887 215.217L112.219 218.407C113.35 221.117 112.282 224.246 109.73 225.699V225.699C108.853 226.199 107.862 226.461 106.852 226.461H80.5302C79.2883 226.461 78.0802 226.058 77.0879 225.311V225.311C75.0767 223.797 74.2901 221.148 75.1496 218.782L76.227 215.816Z" fill="#957835"/>
<path d="M161.003 121.715C162.438 117.766 166.19 115.137 170.392 115.137H186.69C190.614 115.137 194.153 117.495 195.664 121.115L196.995 124.306C198.126 127.016 197.059 130.144 194.507 131.598V131.598C193.63 132.097 192.638 132.36 191.629 132.36H165.307C164.065 132.36 162.857 131.956 161.864 131.209V131.209C159.853 129.696 159.066 127.046 159.926 124.68L161.003 121.715Z" fill="#957835"/>
<path d="M191.115 104.492C192.549 100.543 196.302 97.9138 200.503 97.9138H216.802C220.725 97.9138 224.264 100.272 225.775 103.892L227.106 107.083C228.237 109.793 227.17 112.921 224.618 114.375V114.375C223.741 114.874 222.749 115.137 221.74 115.137H195.418C194.176 115.137 192.968 114.733 191.976 113.986V113.986C189.964 112.473 189.178 109.823 190.037 107.457L191.115 104.492Z" fill="#957835"/>
<path d="M196.307 252.859C197.742 248.91 201.494 246.281 205.696 246.281H221.994C225.918 246.281 229.456 248.639 230.967 252.26L232.299 255.45C233.43 258.16 232.362 261.288 229.811 262.742V262.742C228.934 263.242 227.942 263.504 226.933 263.504H200.61C199.369 263.504 198.16 263.1 197.168 262.354V262.354C195.157 260.84 194.37 258.191 195.23 255.825L196.307 252.859Z" fill="#957835"/>
<path d="M226.419 235.636C227.853 231.687 231.606 229.058 235.807 229.058H252.106C256.029 229.058 259.568 231.416 261.079 235.037L262.41 238.227C263.541 240.937 262.474 244.065 259.922 245.519V245.519C259.045 246.018 258.053 246.281 257.044 246.281H230.722C229.48 246.281 228.272 245.877 227.28 245.131V245.131C225.268 243.617 224.482 240.967 225.341 238.602L226.419 235.636Z" fill="#957835"/>
<path d="M28.6799 62.5282C30.1145 58.5794 33.8668 55.9503 38.0682 55.9503H54.3669C58.2902 55.9503 61.8292 58.3082 63.3401 61.9289L64.6715 65.1193C65.8025 67.8295 64.7351 70.9577 62.1833 72.4112V72.4112C61.3063 72.9107 60.3145 73.1734 59.3053 73.1734H32.9831C31.7412 73.1734 30.5331 72.7696 29.5408 72.0229V72.0229C27.5296 70.5094 26.743 67.8597 27.6025 65.494L28.6799 62.5282Z" fill="#957835"/>
<path d="M58.7913 45.3052C60.2259 41.3563 63.9782 38.7272 68.1796 38.7272H84.4783C88.4016 38.7272 91.9405 41.0851 93.4515 44.7058L94.7829 47.8962C95.9139 50.6064 94.8465 53.7346 92.2946 55.1881V55.1881C91.4177 55.6877 90.4259 55.9503 89.4166 55.9503H63.0944C61.8526 55.9503 60.6444 55.5465 59.6522 54.7998V54.7998C57.641 53.2863 56.8543 50.6367 57.7138 48.2709L58.7913 45.3052Z" fill="#957835"/>
</svg>
