<svg width="128" height="128" viewBox="0 0 128 128" fill="none" xmlns="http://www.w3.org/2000/svg">
<path d="M4.5 27.1273L64.0083 57.2928V128L4.5 97.8345L4.5 27.1273Z" fill="#DEC184"/>
<path d="M4.5 27.1273L64.0083 57.2928V128L4.5 97.8345L4.5 27.1273Z" fill="#DEC184"/>
<path d="M123.516 27.1273L64.0082 57.2928V128L123.516 97.8345V27.1273Z" fill="#BBA371"/>
<path d="M123.516 27.1273L64.0082 57.2928V128L123.516 97.8345V27.1273Z" fill="#BBA371"/>
<path fill-rule="evenodd" clip-rule="evenodd" d="M64.0083 0L4.5 27.1274L64.0083 57.2928L123.517 27.1274L64.0083 0Z" fill="#CDAF71"/>
<path fill-rule="evenodd" clip-rule="evenodd" d="M18.2805 76.9604C14.2948 72.4446 11.9017 66.4956 11.9683 59.9987C12.1113 46.0542 23.5314 34.8659 37.4759 35.0089C51.4203 35.1519 62.6086 46.572 62.4656 60.5165C62.4063 66.3032 60.4049 71.6153 57.087 75.8399C51.6694 73.2358 45.6088 71.7498 39.201 71.6841C31.6148 71.6063 24.4741 73.5288 18.2805 76.9604Z" fill="white"/>
<circle cx="7.5" cy="7.5" r="7.5" transform="matrix(1 0 0 -1 29.75 67.5782)" fill="black"/>
<path fill-rule="evenodd" clip-rule="evenodd" d="M109.444 76.9604C113.43 72.4446 115.823 66.4956 115.756 59.9987C115.613 46.0542 104.193 34.8659 90.2486 35.0089C76.3042 35.1519 65.1159 46.572 65.2589 60.5165C65.3182 66.3032 67.3196 71.6153 70.6375 75.8399C76.0551 73.2358 82.1157 71.7498 88.5235 71.6841C96.1097 71.6063 103.25 73.5288 109.444 76.9604Z" fill="white"/>
<circle cx="90.4746" cy="60.0782" r="7.5" transform="rotate(180 90.4746 60.0782)" fill="black"/>
</svg>
