<svg width="128" height="128" viewBox="0 0 128 128" fill="none" xmlns="http://www.w3.org/2000/svg">
<path d="M4.5 27.1273L64.0083 57.2928V128L4.5 97.8345L4.5 27.1273Z" fill="#DEC184"/>
<path d="M4.5 27.1273L64.0083 57.2928V128L4.5 97.8345L4.5 27.1273Z" fill="#DEC184"/>
<path d="M123.516 27.1273L64.0082 57.2928V128L123.516 97.8345V27.1273Z" fill="#BBA371"/>
<path d="M123.516 27.1273L64.0082 57.2928V128L123.516 97.8345V27.1273Z" fill="#BBA371"/>
<path fill-rule="evenodd" clip-rule="evenodd" d="M64.0083 0L4.5 27.1274L64.0083 57.2928L123.517 27.1274L64.0083 0Z" fill="#CDAF71"/>
<path fill-rule="evenodd" clip-rule="evenodd" d="M20.1848 78.8984C15.0707 74.2225 11.8917 67.4733 11.9683 59.9987C12.1113 46.0543 23.5314 34.866 37.4759 35.009C50.4226 35.1417 60.9935 44.9956 62.3255 57.5654L20.1848 78.8984Z" fill="white"/>
<circle cx="7.5" cy="7.5" r="7.5" transform="matrix(1 0 0 -1 29.75 67.5782)" fill="black"/>
<path fill-rule="evenodd" clip-rule="evenodd" d="M107.619 78.8985C112.733 74.2225 115.912 67.4733 115.836 59.9988C115.693 46.0543 104.273 34.866 90.3282 35.009C77.3814 35.1418 66.8105 44.9957 65.4786 57.5655L107.619 78.8985Z" fill="white"/>
<circle cx="90.5542" cy="60.0783" r="7.5" transform="rotate(-180 90.5542 60.0783)" fill="black"/>
</svg>
