<svg width="128" height="128" viewBox="0 0 128 128" fill="none" xmlns="http://www.w3.org/2000/svg">
<path d="M4.5 27.1273L64.0083 57.2928V128L4.5 97.8345L4.5 27.1273Z" fill="#DEC184"/>
<path d="M4.5 27.1273L64.0083 57.2928V128L4.5 97.8345L4.5 27.1273Z" fill="#DEC184"/>
<path d="M123.516 27.1273L64.0082 57.2928V128L123.516 97.8345V27.1273Z" fill="#BBA371"/>
<path d="M123.516 27.1273L64.0082 57.2928V128L123.516 97.8345V27.1273Z" fill="#BBA371"/>
<path fill-rule="evenodd" clip-rule="evenodd" d="M64.0083 0L4.5 27.1274L64.0083 57.2928L123.517 27.1274L64.0083 0Z" fill="#CDAF71"/>
<path fill-rule="evenodd" clip-rule="evenodd" d="M20.1848 35.1798C15.0707 39.8558 11.8917 46.605 11.9683 54.0795C12.1113 68.024 23.5314 79.2123 37.4759 79.0693C50.4226 78.9365 60.9935 69.0826 62.3255 56.5128L20.1848 35.1798Z" fill="white"/>
<circle cx="37.25" cy="54" r="7.5" fill="black"/>
<path fill-rule="evenodd" clip-rule="evenodd" d="M107.619 35.1798C112.733 39.8558 115.912 46.605 115.836 54.0795C115.693 68.024 104.273 79.2123 90.3282 79.0693C77.3814 78.9365 66.8105 69.0826 65.4786 56.5128L107.619 35.1798Z" fill="white"/>
<circle cx="7.5" cy="7.5" r="7.5" transform="matrix(-1 0 0 1 98.0541 46.5)" fill="black"/>
</svg>
