<svg width="141" height="261" viewBox="0 0 141 261" fill="none" xmlns="http://www.w3.org/2000/svg">
<path d="M34.4252 32.1642C36.1394 13.9736 51.4113 0.0730591 69.6826 0.0730591V0.0730591C87.1112 0.0730591 101.949 12.7543 104.664 29.9703L130.666 194.865C136.066 229.106 109.6 260.073 74.9354 260.073V260.073C41.6848 260.073 15.6451 231.464 18.7645 198.36L34.4252 32.1642Z" fill="#9747FF"/>
<mask id="mask0_42_616" style="mask-type:alpha" maskUnits="userSpaceOnUse" x="18" y="0" width="114" height="261">
<path d="M34.4252 32.1642C36.1394 13.9736 51.4113 0.0730591 69.6826 0.0730591V0.0730591C87.1112 0.0730591 101.949 12.7543 104.664 29.9703L130.666 194.865C136.066 229.106 109.6 260.073 74.9354 260.073V260.073C41.6848 260.073 15.6451 231.464 18.7645 198.36L34.4252 32.1642Z" fill="#CBA4FF"/>
</mask>
<g mask="url(#mask0_42_616)">
<path d="M11.4252 32.1642C13.1394 13.9736 28.4113 0.0730591 46.6826 0.0730591V0.0730591C64.1112 0.0730591 78.949 12.7543 81.6638 29.9703L107.666 194.865C113.066 229.106 86.5998 260.073 51.9354 260.073V260.073C18.6848 260.073 -7.35495 231.464 -4.23554 198.36L11.4252 32.1642Z" fill="#CBA4FF"/>
</g>
<mask id="mask1_42_616" style="mask-type:alpha" maskUnits="userSpaceOnUse" x="18" y="0" width="114" height="261">
<path d="M34.4252 32.1642C36.1394 13.9736 51.4113 0.0730591 69.6826 0.0730591V0.0730591C87.1112 0.0730591 101.949 12.7543 104.664 29.9703L130.666 194.865C136.066 229.106 109.6 260.073 74.9354 260.073V260.073C41.6848 260.073 15.6451 231.464 18.7645 198.36L34.4252 32.1642Z" fill="#CBA4FF"/>
</mask>
<g mask="url(#mask1_42_616)">
<path d="M11.4252 32.1642C13.1394 13.9736 28.4113 0.0730591 46.6826 0.0730591V0.0730591C64.1112 0.0730591 78.949 12.7543 81.6638 29.9703L107.666 194.865C113.066 229.106 86.5998 260.073 51.9354 260.073V260.073C18.6848 260.073 -7.35495 231.464 -4.23554 198.36L11.4252 32.1642Z" fill="#CBA4FF"/>
</g>
<circle cx="73.9037" cy="207.028" r="23.6413" transform="rotate(15 73.9037 207.028)" fill="#9747FF"/>
<circle cx="73.9037" cy="207.028" r="13.134" transform="rotate(15 73.9037 207.028)" fill="#5E24AA"/>
<circle cx="48.9946" cy="157.118" r="18" transform="rotate(15 48.9946 157.118)" fill="#9747FF"/>
<circle cx="48.9947" cy="157.118" r="10" transform="rotate(15 48.9947 157.118)" fill="#5E24AA"/>
<circle cx="72.8262" cy="113.95" r="14.5965" transform="rotate(15 72.8262 113.95)" fill="#9747FF"/>
<circle cx="72.8262" cy="113.95" r="8.10916" transform="rotate(15 72.8262 113.95)" fill="#5E24AA"/>
<circle cx="52.8263" cy="72.95" r="14.5965" transform="rotate(15 52.8263 72.95)" fill="#9747FF"/>
<circle cx="52.8263" cy="72.9501" r="8.10916" transform="rotate(15 52.8263 72.9501)" fill="#5E24AA"/>
</svg>
