<svg width="99" height="183" viewBox="0 0 99 183" fill="none" xmlns="http://www.w3.org/2000/svg">
<path d="M24.047 23.4139C25.2469 10.6804 35.9372 0.950043 48.7271 0.950043V0.950043C60.9272 0.950043 71.3136 9.82693 73.214 21.8781L91.4158 137.304C95.1955 161.273 76.6692 182.95 52.4041 182.95V182.95C29.1287 182.95 10.9009 162.924 13.0845 139.751L24.047 23.4139Z" fill="#9747FF"/>
<mask id="mask0_42_637" style="mask-type:alpha" maskUnits="userSpaceOnUse" x="12" y="0" width="80" height="183">
<path d="M24.047 23.4139C25.2469 10.6804 35.9372 0.950043 48.7271 0.950043V0.950043C60.9272 0.950043 71.3136 9.82693 73.214 21.8781L91.4158 137.304C95.1955 161.273 76.6692 182.95 52.4041 182.95V182.95C29.1287 182.95 10.9009 162.924 13.0845 139.751L24.047 23.4139Z" fill="#CBA4FF"/>
</mask>
<g mask="url(#mask0_42_637)">
<path d="M7.94697 23.4139C9.14686 10.6804 19.8372 0.950043 32.6271 0.950043V0.950043C44.8272 0.950043 55.2136 9.82693 57.1139 21.8781L75.3158 137.304C79.0955 161.273 60.5691 182.95 36.3041 182.95V182.95C13.0286 182.95 -5.19916 162.924 -3.01557 139.751L7.94697 23.4139Z" fill="#CBA4FF"/>
</g>
<mask id="mask1_42_637" style="mask-type:alpha" maskUnits="userSpaceOnUse" x="12" y="0" width="80" height="183">
<path d="M24.047 23.4139C25.2469 10.6804 35.9372 0.950043 48.7271 0.950043V0.950043C60.9272 0.950043 71.3136 9.82693 73.214 21.8781L91.4158 137.304C95.1955 161.273 76.6692 182.95 52.4041 182.95V182.95C29.1287 182.95 10.9009 162.924 13.0845 139.751L24.047 23.4139Z" fill="#CBA4FF"/>
</mask>
<g mask="url(#mask1_42_637)">
<path d="M7.94697 23.4139C9.14686 10.6804 19.8372 0.950043 32.6271 0.950043V0.950043C44.8272 0.950043 55.2136 9.82693 57.1139 21.8781L75.3158 137.304C79.0955 161.273 60.5691 182.95 36.3041 182.95V182.95C13.0286 182.95 -5.19916 162.924 -3.01557 139.751L7.94697 23.4139Z" fill="#CBA4FF"/>
</g>
<circle cx="51.6819" cy="145.818" r="16.5489" transform="rotate(15 51.6819 145.818)" fill="#9747FF"/>
<circle cx="51.6819" cy="145.818" r="9.19383" transform="rotate(15 51.6819 145.818)" fill="#5E24AA"/>
<circle cx="34.2455" cy="110.882" r="12.6" transform="rotate(15 34.2455 110.882)" fill="#9747FF"/>
<circle cx="34.2456" cy="110.882" r="7" transform="rotate(15 34.2456 110.882)" fill="#5E24AA"/>
<circle cx="50.9277" cy="80.6639" r="10.2175" transform="rotate(15 50.9277 80.6639)" fill="#9747FF"/>
<circle cx="50.9276" cy="80.6639" r="5.67641" transform="rotate(15 50.9276 80.6639)" fill="#5E24AA"/>
<circle cx="36.9277" cy="51.9639" r="10.2175" transform="rotate(15 36.9277 51.9639)" fill="#9747FF"/>
<circle cx="36.9278" cy="51.9639" r="5.67641" transform="rotate(15 36.9278 51.9639)" fill="#5E24AA"/>
</svg>
