<?xml version="1.0" encoding="UTF-8"?>
<svg width="73px" height="74px" viewBox="0 0 73 74" version="1.1" xmlns="http://www.w3.org/2000/svg" xmlns:xlink="http://www.w3.org/1999/xlink">
    <title>B0A2ABE0-6CFA-4B4D-B59A-C2E94F5B4F72</title>
    <g id="desk" stroke="none" stroke-width="1" fill="none" fill-rule="evenodd">
        <g id="02_cookies" transform="translate(-1729.000000, -724.000000)">
            <g id="icon/cookie-1" transform="translate(1728.706625, 724.794953)">
                <g transform="translate(0.484903, 0.000000)">
                    <rect id="Rectangle" x="0" y="0" width="72.1964848" height="72.681388"></rect>
                    <g id="Group" transform="translate(1.029292, 1.514196)">
                        <path d="M39.1403695,51.3852684 C38.7821491,56.3606005 35.8869344,60.2711646 32.3982346,60.2711646 C28.9095348,60.2711646 26.01432,56.3606005 25.6560997,51.3852684 Z" id="Combined-Shape" fill="#D8F2FC"></path>
                        <path d="M38.6743496,25.3665085 C38.4304897,29.1620834 36.4620446,32.1452152 34.0901353,32.1452152 C31.718226,32.1452152 29.7497809,29.1620834 29.5059209,25.3665085 Z" id="Combined-Shape-Copy-23" fill="#D8F2FC" transform="translate(34.090135, 28.755912) scale(1, -1) translate(-34.090135, -28.755912) "></path>
                        <path d="M15.7705333,30.5963947 C15.5907657,33.0983261 14.1349868,35.0649788 12.3807396,35.0649788 C10.6264925,35.0649788 9.1707135,33.0983261 8.99094595,30.5963947 Z" id="Combined-Shape-Copy-22" fill="#D8F2FC" transform="translate(12.380740, 32.830780) scale(1, -1) translate(-12.380740, -32.830780) "></path>
                        <path d="M32.3982346,44.6515202 C27.8844906,44.6515202 24.1973323,48.3386785 24.1973323,52.8524225 C24.1973323,57.3661665 27.8844906,61.0533248 32.3982346,61.0533248 C36.9119786,61.0533248 40.5991369,57.3661665 40.5991369,52.8524225 C40.5991369,48.3386785 36.9119786,44.6515202 32.3982346,44.6515202 Z M32.3982346,47.4944997 C35.3418444,47.4944997 37.7561574,49.9088127 37.7561574,52.8524225 C37.7561574,55.7960323 35.3418444,58.2103454 32.3982346,58.2103454 C29.4546248,58.2103454 27.0403118,55.7960323 27.0403118,52.8524225 C27.0403118,49.9088127 29.4546248,47.4944997 32.3982346,47.4944997 Z" id="Path" fill="#00458A" fill-rule="nonzero"></path>
                        <path d="M11.945981,29.5232483 C9.49284223,29.5232483 7.49015743,31.5259331 7.49015743,33.9790719 C7.49015743,36.4322106 9.49284223,38.4348954 11.945981,38.4348954 C14.3991198,38.4348954 16.4018046,36.4322106 16.4018046,33.9790719 C16.4018046,31.5259331 14.3991198,29.5232483 11.945981,29.5232483 Z M11.945981,31.6554829 C13.2215191,31.6554829 14.26957,32.7035337 14.26957,33.9790719 C14.26957,35.25461 13.2215191,36.3026608 11.945981,36.3026608 C10.6704429,36.3026608 9.62239203,35.25461 9.62239203,33.9790719 C9.62239203,32.7035337 10.6704429,31.6554829 11.945981,31.6554829 Z" id="Path" fill="#00458A" fill-rule="nonzero"></path>
                        <path d="M34.0930877,35.673925 C36.8895954,35.673925 39.1776472,33.3858733 39.1776472,30.5893656 C39.1776472,27.7928579 36.8895954,25.5048061 34.0930877,25.5048061 C31.29658,25.5048061 29.0085283,27.7928579 29.0085283,30.5893656 C29.0085283,33.3858733 31.29658,35.673925 34.0930877,35.673925 Z" id="Path" stroke="#00458A" stroke-width="2.1322346" stroke-linecap="round" stroke-linejoin="round"></path>
                        <path d="M24.6573796,10.8798637 C22.6703254,10.8798637 21.0489826,12.5012066 21.0489826,14.4882607 C21.0489826,16.4753149 22.6703254,18.0966577 24.6573796,18.0966577 C26.6444337,18.0966577 28.2657766,16.4753149 28.2657766,14.4882607 C28.2657766,12.5012066 26.6444337,10.8798637 24.6573796,10.8798637 Z M24.6573796,13.0120983 C25.4668331,13.0120983 26.133542,13.6788072 26.133542,14.4882607 C26.133542,15.2977142 25.4668331,15.9644231 24.6573796,15.9644231 C23.8479261,15.9644231 23.1812172,15.2977142 23.1812172,14.4882607 C23.1812172,13.6788072 23.8479261,13.0120983 24.6573796,13.0120983 Z" id="Path" fill="#00458A" fill-rule="nonzero"></path>
                        <path d="M50.9456616,40.2777057 C49.1548742,40.2777057 47.692637,41.7399429 47.692637,43.5307303 C47.692637,45.3215176 49.1548742,46.7837548 50.9456616,46.7837548 C52.736449,46.7837548 54.1986862,45.3215176 54.1986862,43.5307303 C54.1986862,41.7399429 52.736449,40.2777057 50.9456616,40.2777057 Z M50.9456616,41.6991954 C51.9513819,41.6991954 52.7771964,42.52501 52.7771964,43.5307303 C52.7771964,44.5364505 51.9513819,45.3622651 50.9456616,45.3622651 C49.9399413,45.3622651 49.1141267,44.5364505 49.1141267,43.5307303 C49.1141267,42.52501 49.9399413,41.6991954 50.9456616,41.6991954 Z" id="Path" fill="#00458A" fill-rule="nonzero"></path>
                        <path d="M34.8264984,0 C15.5831219,0 0,15.5831219 0,34.8264984 C0,54.0698749 15.5831219,69.6529968 34.8264984,69.6529968 C54.0698749,69.6529968 69.6529968,54.0698749 69.6529968,34.8264984 C69.6529968,33.6430095 69.6026155,32.5178272 69.4955182,31.468273 C69.3793714,30.3300345 68.2390749,29.6070667 67.1719704,29.960837 L67.0618863,30.001302 C66.243761,30.3320335 65.3671457,30.5073565 64.4864284,30.5073565 C61.1490243,30.5073565 58.336978,28.0351306 57.8654268,24.7697415 L57.8408316,24.5804857 C57.7080717,23.4318242 56.5369898,22.7246055 55.4700621,23.1138953 L55.3601087,23.1581049 C54.5077116,23.5331596 53.5846031,23.727944 52.6224564,23.727944 C48.9217585,23.727944 45.9250529,20.7312384 45.9250529,17.0305404 C45.9250529,16.0683938 46.1198372,15.1452852 46.4948919,14.2928882 C46.9620185,13.2312369 46.3031351,12.0262907 45.1814147,11.8280448 L45.0637508,11.8111748 C41.7109987,11.4405188 39.1456403,8.58788058 39.1456403,5.16656845 C39.1456403,4.38370861 39.2841672,3.60408985 39.5472342,2.86591064 L39.6516949,2.59111052 C40.0952962,1.49378082 39.362212,0.277630512 38.1847239,0.157478667 C37.1292973,0.0497820726 36.023029,0 34.8264984,0 Z M34.8264984,3.55372433 L35.2845652,3.55646181 L35.719194,3.56509625 L35.6792755,3.83088488 C35.6214275,4.27246789 35.591916,4.71864264 35.591916,5.16656845 L35.5945342,5.4004308 C35.6921113,9.75471032 38.507709,13.4743185 42.4576921,14.8441162 L42.5928076,14.8893942 L42.5593508,15.0499626 C42.4347253,15.6964033 42.3713285,16.3586409 42.3713285,17.0305404 C42.3713285,22.6939061 46.9590907,27.2816683 52.6224564,27.2816683 L52.9575726,27.2763953 C53.514663,27.2588353 54.0643337,27.1975006 54.6030343,27.0936461 L54.7714208,27.0587678 L54.8192788,27.2017443 C56.2278749,31.2181579 60.0511434,34.0610809 64.4864284,34.0610809 L64.822,34.0555658 C65.1571546,34.0445541 65.4909247,34.0171074 65.822112,33.9737214 L66.0886113,33.9345136 L66.0965019,34.3721536 C66.0983528,34.5222783 66.0992725,34.6737479 66.0992725,34.8264984 C66.0992725,52.1072071 52.1072071,66.0992725 34.8264984,66.0992725 C17.5457897,66.0992725 3.55372433,52.1072071 3.55372433,34.8264984 C3.55372433,17.5457897 17.5457897,3.55372433 34.8264984,3.55372433 Z" id="Path" fill="#00458A" fill-rule="nonzero"></path>
                    </g>
                </g>
            </g>
        </g>
    </g>
</svg>